<?xml version="1.0" encoding="utf-8"?>
<svg width="1920px" height="1080px" viewBox="0 0 1920 1080" version="1.1" xmlns:xlink="http://www.w3.org/1999/xlink" xmlns="http://www.w3.org/2000/svg">
  <g id="featuredImagePreview">
    <path d="M0 0L1920 0L1920 1080L0 1080L0 0Z" id="Rectangle" fill="none" fill-rule="evenodd" stroke="none" />
    <g id="HUGO" transform="translate(594 390.00073)">
      <path d="M0 92.9997L0 207C0 219.862 6.86159 231.747 18 238.177L116.727 295.177C127.865 301.608 141.589 301.608 152.727 295.177L251.454 238.177C262.592 231.746 269.454 219.861 269.454 206.999L269.454 92.9997C269.454 80.1381 262.592 68.2535 251.454 61.8227L152.727 4.8231C141.589 -1.60771 127.865 -1.60771 116.727 4.8231L18.0001 61.8235C6.86188 68.2541 0.000329592 80.1384 0 92.9997L0 92.9997Z" id="Shape" fill="#C9177E" fill-rule="evenodd" stroke="none" />
      <path d="M26.0677 108.05L26.0677 191.95C26.0677 204.811 32.9293 216.696 44.0678 223.127L116.727 265.077C127.865 271.507 141.589 271.507 152.727 265.077L225.386 223.127C236.525 216.696 243.386 204.811 243.386 191.95L243.386 108.05C243.386 95.1888 236.525 83.3041 225.386 76.8733L152.727 34.9235C141.589 28.4927 127.865 28.4927 116.727 34.9235L44.0679 76.8733C32.9294 83.3041 26.0678 95.1887 26.0677 108.05L26.0677 108.05Z" id="Shape" fill="#FF4088" fill-rule="evenodd" stroke="none" />
      <path d="M85.5428 210L85.5428 89.9996L106.239 89.9996L106.239 139.397L163.982 139.397L163.982 89.9996L183.911 89.9996L183.911 210L163.982 210L163.982 156.6L106.239 156.6L106.239 210L85.5428 210Z" id="Shape" fill="#FFFFFF" stroke="none" />
      <path d="M288.002 92.9997L288.002 207C288.002 219.862 294.863 231.747 306.002 238.177L404.729 295.177C415.867 301.608 429.59 301.608 440.729 295.177L539.456 238.177C550.594 231.746 557.456 219.861 557.456 206.999L557.456 92.9997C557.456 80.1381 550.594 68.2535 539.456 61.8227L440.729 4.8231C429.59 -1.60771 415.867 -1.60771 404.729 4.8231L306.002 61.8235C294.864 68.2541 288.002 80.1384 288.002 92.9997L288.002 92.9997Z" id="Shape" fill="#0083C0" fill-rule="evenodd" stroke="none" />
      <path d="M314.069 108.05L314.069 191.95C314.069 204.811 320.931 216.696 332.07 223.127L404.729 265.077C415.867 271.507 429.59 271.507 440.729 265.077L513.388 223.127C524.526 216.696 531.388 204.811 531.388 191.95L531.388 108.05C531.388 95.1888 524.526 83.3041 513.388 76.8733L440.729 34.9235C429.59 28.4927 415.867 28.4927 404.729 34.9235L332.07 76.8733C320.931 83.3041 314.07 95.1887 314.069 108.05L314.069 108.05Z" id="Shape" fill="#0594CB" fill-rule="evenodd" stroke="none" />
      <path d="M576.004 92.9997L576.004 207C576.004 219.862 582.865 231.747 594.004 238.177L692.73 295.177C703.869 301.608 717.592 301.608 728.731 295.177L827.457 238.177C838.596 231.746 845.458 219.861 845.458 206.999L845.458 92.9997C845.458 80.1381 838.596 68.2535 827.457 61.8227L728.731 4.8231C717.592 -1.60771 703.869 -1.60771 692.73 4.8231L594.004 61.8235C582.865 68.2541 576.004 80.1384 576.004 92.9997L576.004 92.9997Z" id="Shape" fill="#00A88A" fill-rule="evenodd" stroke="none" />
      <path d="M602.071 108.05L602.071 191.95C602.071 204.811 608.933 216.696 620.071 223.127L692.73 265.077C703.869 271.507 717.592 271.507 728.731 265.077L801.39 223.127C812.528 216.696 819.39 204.811 819.39 191.95L819.39 108.05C819.39 95.1888 812.528 83.3041 801.39 76.8733L728.731 34.9235C717.592 28.4927 703.869 28.4927 692.73 34.9235L620.071 76.8733C608.933 83.3041 602.071 95.1887 602.071 108.05L602.071 108.05Z" id="Shape" fill="#33BA91" fill-rule="evenodd" stroke="none" />
      <path d="M864.005 92.9997L864.005 207C864.005 219.862 870.867 231.747 882.005 238.177L980.732 295.177C991.871 301.608 1005.59 301.608 1016.73 295.177L1115.46 238.177C1126.6 231.746 1133.46 219.861 1133.46 206.999L1133.46 92.9997C1133.46 80.1381 1126.6 68.2535 1115.46 61.8227L1016.73 4.8231C1005.59 -1.60771 991.871 -1.60771 980.732 4.8231L882.005 61.8235C870.867 68.2541 864.006 80.1384 864.005 92.9997L864.005 92.9997Z" id="Shape" fill="#FCD804" fill-rule="evenodd" stroke="none" />
      <path d="M890.073 108.05L890.073 191.95C890.073 204.811 896.935 216.696 908.073 223.127L980.732 265.077C991.871 271.507 1005.59 271.507 1016.73 265.077L1089.39 223.127C1100.53 216.696 1107.39 204.811 1107.39 191.95L1107.39 108.05C1107.39 95.1888 1100.53 83.3041 1089.39 76.8733L1016.73 34.9235C1005.59 28.4927 991.871 28.4927 980.732 34.9235L908.073 76.8733C896.935 83.3041 890.073 95.1887 890.073 108.05L890.073 108.05Z" id="Shape" fill="#EBB951" fill-rule="evenodd" stroke="none" />
      <path d="M421.847 210C406.563 210 394.919 206.137 386.913 198.412C378.906 190.686 374.904 179.433 374.905 164.654L374.905 89.9996L395.311 89.9996L395.311 163.142C395.311 172.883 397.704 180.427 402.491 185.774C407.277 191.12 413.925 193.793 422.435 193.793C431.448 193.793 438.334 191.022 443.093 185.48C447.851 179.937 450.231 172.155 450.231 162.134L450.231 89.9996L470.553 89.9996L470.553 163.31C470.553 178.37 466.368 189.916 457.998 197.95C449.629 205.984 437.578 210 421.847 210L421.847 210Z" id="Shape" fill="#FFFFFF" stroke="none" />
      <path d="M714.372 210C697.489 210 684.399 204.69 675.103 194.069C665.806 183.448 661.158 168.593 661.158 149.503C661.158 130.303 665.71 115.586 674.813 105.351C683.917 95.117 696.91 89.9997 713.793 89.9996C725.434 89.9996 735.007 92.3031 742.51 96.91C750.014 101.517 755.503 108.538 758.979 117.972L740.441 123.6C736.138 111.903 727.172 106.055 713.544 106.055C703.061 106.055 695.103 109.793 689.668 117.269C684.234 124.745 681.517 135.49 681.517 149.503C681.517 163.517 684.427 174.441 690.248 182.276C696.068 190.11 704.165 194.027 714.537 194.027C725.296 194.027 734.262 190.607 741.434 183.765L741.434 163.241L713.958 163.241L713.958 148.428L760.303 148.428L760.303 190.966C754.785 197.031 747.967 201.77 740.359 204.828C732.134 208.288 723.294 210.048 714.372 210L714.372 210Z" id="Shape" fill="#FFFFFF" stroke="none" />
      <path d="M1054.76 149.503C1054.76 161.807 1052.51 172.552 1048.02 181.738C1043.86 190.558 1037.1 197.893 1028.65 202.759C1020.24 207.587 1010.24 210 998.65 210C980.884 210 967.118 204.69 957.353 194.069C947.587 183.448 942.704 168.593 942.704 149.503C942.704 130.579 947.614 115.931 957.435 105.558C967.256 95.1858 981.049 89.9996 998.815 89.9996C1016.58 89.9996 1030.35 95.241 1040.11 105.724C1049.88 116.207 1054.76 130.8 1054.76 149.503L1054.76 149.503ZM1034.24 149.503C1034.24 135.6 1031.2 124.883 1025.13 117.352C1019.06 109.82 1010.29 106.055 998.816 106.055C987.119 106.055 978.236 109.793 972.167 117.269C966.098 124.745 963.064 135.49 963.064 149.503C963.064 163.517 966.14 174.441 972.292 182.276C978.444 190.11 987.23 194.027 998.65 194.028C1010.35 194.028 1019.2 190.249 1025.22 182.69C1031.23 175.132 1034.24 164.069 1034.24 149.503L1034.24 149.503Z" id="Shape" fill="#FFFFFF" fill-rule="evenodd" stroke="none" />
    </g>
    <path d="M331.3 562.95C329.646 562.95 328.059 562.293 326.887 561.125L317.575 551.837C315.948 550.271 315.294 547.948 315.862 545.762C316.431 543.576 318.135 541.867 320.32 541.292C322.504 540.717 324.828 541.365 326.4 542.987L331.3 547.875L346.063 533.125C347.641 531.544 349.943 530.925 352.102 531.502C354.26 532.079 355.947 533.763 356.527 535.921C357.107 538.079 356.491 540.382 354.913 541.962L335.725 561.125C334.548 562.292 332.958 562.947 331.3 562.95L331.3 562.95L331.3 562.95ZM448.212 561.112L467.388 541.962C469.756 539.51 469.722 535.612 467.312 533.201C464.9 530.79 461.002 530.756 458.55 533.125L443.788 547.875L438.888 542.988C437.316 541.365 434.992 540.717 432.806 541.292C430.622 541.867 428.918 543.576 428.35 545.762C427.78 547.948 428.436 550.271 430.062 551.837L439.388 561.125C440.556 562.3 442.146 562.96 443.802 562.958C445.46 562.956 447.048 562.291 448.212 561.113L448.212 561.112L448.212 561.112ZM250.587 483.15L282.55 463.337C286.219 461.067 288.457 457.066 288.473 452.752C288.488 448.438 286.277 444.421 282.625 442.125L250.662 422C246.811 419.574 241.946 419.433 237.96 421.632C233.975 423.832 231.501 428.023 231.5 432.575L231.5 472.525C231.508 477.058 233.966 481.233 237.927 483.437C241.888 485.642 246.731 485.532 250.588 483.15L250.587 483.15L250.587 483.15ZM275.963 452.7L244 472.525L244 432.575L275.963 452.7L275.963 452.7L275.963 452.7ZM494 546.25C494 570.375 474.376 590 450.25 590C428.528 589.958 410.12 573.998 407 552.5L381 552.5C377.881 573.998 359.473 589.958 337.75 590C316.025 589.964 297.614 574 294.5 552.5L287.525 552.5C275.375 552.5 264.4 547.513 256.5 539.475L256.5 602.5C256.5 623.176 273.325 640 294 640L294.5 640C297.55 618.838 315.75 602.5 337.75 602.5C361.875 602.5 381.5 622.126 381.5 646.25C381.5 670.376 361.875 690 337.75 690C316.025 689.964 297.614 674 294.5 652.5L294 652.5C266.425 652.5 244 630.074 244 602.5L244 513.738C214.922 507.762 194.039 482.186 194 452.5C194 418.038 222.038 390 256.5 390C290.963 390 319 418.038 319 452.5C318.953 486.764 291.357 514.614 257.098 514.975C259.963 529.512 272.708 539.994 287.525 540L294.5 540C297.55 518.838 315.75 502.5 337.75 502.5C359.475 502.536 377.886 518.5 381 540L407 540C410.12 518.502 428.528 502.542 450.25 502.5C474.376 502.5 494 522.125 494 546.25L494 546.25L494 546.25ZM306.5 646.25C306.5 663.474 320.525 677.5 337.75 677.5C354.975 677.5 369 663.474 369 646.25C369 629.024 354.975 615 337.75 615C320.525 615 306.5 629.024 306.5 646.25L306.5 646.25L306.5 646.25ZM256.5 502.5C284.075 502.5 306.5 480.075 306.5 452.5C306.5 424.925 284.075 402.5 256.5 402.5C228.925 402.5 206.5 424.925 206.5 452.5C206.5 480.075 228.925 502.5 256.5 502.5L256.5 502.5L256.5 502.5ZM369 546.25C369 529.025 354.975 515 337.75 515C320.525 515 306.5 529.025 306.5 546.25C306.5 563.475 320.525 577.5 337.75 577.5C354.975 577.5 369 563.475 369 546.25L369 546.25L369 546.25ZM481.5 546.25C481.5 529.025 467.474 515 450.25 515C433.024 515 419 529.025 419 546.25C419 563.475 433.024 577.5 450.25 577.5C467.474 577.5 481.5 563.475 481.5 546.25L481.5 546.25L481.5 546.25ZM319 646.25C319 649.702 321.798 652.5 325.25 652.5C328.702 652.5 331.5 649.702 331.5 646.25C331.5 642.798 328.702 640 325.25 640C321.798 640 319 642.798 319 646.25L319 646.25L319 646.25ZM344 646.25C344 649.702 346.798 652.5 350.25 652.5C353.702 652.5 356.5 649.702 356.5 646.25C356.5 642.798 353.702 640 350.25 640C346.798 640 344 642.798 344 646.25L344 646.25L344 646.25ZM494 646.25C494 670.374 474.376 690 450.25 690C428.52 689.956 410.108 673.982 407 652.474C406.912 652.488 406.838 652.538 406.738 652.538L400.412 652.75L400.2 652.75C396.85 652.664 394.166 649.952 394.112 646.602C394.058 643.252 396.656 640.456 400 640.262L406.324 640.05C406.55 640.024 406.762 640.124 406.976 640.138C410.034 618.576 428.472 602.54 450.25 602.5C474.376 602.5 494 622.124 494 646.25L494 646.25L494 646.25ZM481.5 646.25C481.5 629.024 467.474 615 450.25 615C433.024 615 419 629.024 419 646.25C419 663.474 433.024 677.5 450.25 677.5C467.474 677.5 481.5 663.474 481.5 646.25L481.5 646.25L481.5 646.25Z" id="GitHubActions" fill="#2088FF" fill-rule="evenodd" stroke="none" />
  </g>
</svg>