<?xml version="1.0" encoding="utf-8"?>
<svg width="1920px" height="1080px" viewBox="0 0 1920 1080" version="1.1" xmlns:xlink="http://www.w3.org/1999/xlink" xmlns="http://www.w3.org/2000/svg">
  <defs>
    <path d="M0 0L300 0L300 300L0 300L0 0L0 0Z" id="path_1" />
    <clipPath id="mask_1">
      <use xlink:href="#path_1" />
    </clipPath>
  </defs>
  <g id="featuredImagePreview">
    <path d="M0 0L1920 0L1920 1080L0 1080L0 0Z" id="Rectangle" fill="none" fill-rule="evenodd" stroke="none" />
    <g id="Group" transform="translate(323 390)">
      <g id="GitHubActions" transform="translate(525 37.5)">
        <path d="M102.975 129.713C101.734 129.712 100.544 129.22 99.6656 128.344L92.6812 121.378C91.4612 120.203 90.9702 118.461 91.3969 116.821C91.8236 115.182 93.1016 113.9 94.7397 113.469C96.3779 113.038 98.1213 113.524 99.3 114.741L102.975 118.406L114.047 107.344C115.231 106.158 116.958 105.694 118.576 106.127C120.195 106.559 121.46 107.823 121.895 109.441C122.33 111.059 121.868 112.786 120.684 113.972L106.294 128.344C105.411 129.219 104.218 129.711 102.975 129.713L102.975 129.713L102.975 129.713ZM190.659 128.334L205.041 113.972C206.817 112.133 206.791 109.209 204.984 107.401C203.175 105.593 200.251 105.567 198.413 107.344L187.341 118.406L183.666 114.741C182.487 113.524 180.744 113.038 179.105 113.469C177.466 113.9 176.188 115.182 175.762 116.821C175.335 118.461 175.827 120.203 177.047 121.378L184.041 128.344C184.917 129.225 186.109 129.72 187.352 129.718C188.595 129.717 189.786 129.218 190.659 128.334L190.659 128.334L190.659 128.334ZM42.4406 69.8625L66.4125 55.0031C69.164 53.3005 70.843 50.2997 70.8545 47.064C70.8658 43.8285 69.208 40.8158 66.4688 39.0938L42.4968 24C39.6084 22.1805 35.9592 22.0747 32.9703 23.7243C29.9814 25.3737 28.1255 28.5174 28.125 31.9313L28.125 61.8938C28.1307 65.2938 29.9748 68.4245 32.9454 70.0779C35.9159 71.7313 39.5484 71.6488 42.4408 69.8623L42.4406 69.8625L42.4406 69.8625ZM61.472 47.025L37.5 61.8938L37.5 31.9313L61.472 47.025L61.472 47.025L61.472 47.025ZM225 117.188C225 135.281 210.282 150 192.188 150C175.896 149.969 162.09 137.998 159.75 121.875L140.25 121.875C137.911 137.998 124.104 149.969 107.813 150C91.519 149.973 77.7107 138 75.375 121.875L70.1438 121.875C61.0313 121.875 52.8 118.134 46.875 112.106L46.875 159.375C46.875 174.882 59.4937 187.5 75 187.5L75.375 187.5C77.6625 171.629 91.3125 159.375 107.813 159.375C125.906 159.375 140.625 174.094 140.625 192.188C140.625 210.282 125.906 225 107.813 225C91.519 224.973 77.7107 213 75.375 196.875L75 196.875C54.3188 196.875 37.5 180.055 37.5 159.375L37.5 92.8032C15.6913 88.3218 0.0289307 69.1393 0 46.875C0 21.0282 21.0282 0 46.875 0C72.722 0 93.75 21.0282 93.75 46.875C93.7145 72.5727 73.0176 93.4602 47.3232 93.7312C49.4724 104.634 59.031 112.496 70.1438 112.5L75.375 112.5C77.6625 96.6282 91.3125 84.375 107.813 84.375C124.106 84.4022 137.914 96.3747 140.25 112.5L159.75 112.5C162.09 96.3768 175.896 84.4062 192.188 84.375C210.282 84.375 225 99.0938 225 117.188L225 117.188L225 117.188ZM84.375 192.188C84.375 205.105 94.8938 215.625 107.813 215.625C120.731 215.625 131.25 205.105 131.25 192.188C131.25 179.268 120.731 168.75 107.813 168.75C94.8938 168.75 84.375 179.268 84.375 192.188L84.375 192.188L84.375 192.188ZM46.875 84.375C67.5562 84.375 84.375 67.5563 84.375 46.875C84.375 26.1937 67.5562 9.375 46.875 9.375C26.1938 9.375 9.375 26.1937 9.375 46.875C9.375 67.5563 26.1938 84.375 46.875 84.375L46.875 84.375L46.875 84.375ZM131.25 117.188C131.25 104.269 120.731 93.75 107.813 93.75C94.8938 93.75 84.375 104.269 84.375 117.188C84.375 130.106 94.8938 140.625 107.813 140.625C120.731 140.625 131.25 130.106 131.25 117.188L131.25 117.188L131.25 117.188ZM215.625 117.188C215.625 104.269 205.105 93.75 192.188 93.75C179.268 93.75 168.75 104.269 168.75 117.188C168.75 130.106 179.268 140.625 192.188 140.625C205.105 140.625 215.625 130.106 215.625 117.188L215.625 117.188L215.625 117.188ZM93.75 192.188C93.75 194.777 95.8487 196.875 98.4375 196.875C101.026 196.875 103.125 194.777 103.125 192.188C103.125 189.598 101.026 187.5 98.4375 187.5C95.8487 187.5 93.75 189.598 93.75 192.188L93.75 192.188L93.75 192.188ZM112.5 192.188C112.5 194.777 114.599 196.875 117.188 196.875C119.776 196.875 121.875 194.777 121.875 192.188C121.875 189.598 119.776 187.5 117.188 187.5C114.599 187.5 112.5 189.598 112.5 192.188L112.5 192.188L112.5 192.188ZM225 192.188C225 210.281 210.282 225 192.187 225C175.89 224.967 162.081 212.986 159.75 196.855C159.684 196.866 159.628 196.903 159.553 196.903L154.809 197.063L154.65 197.063C152.137 196.998 150.124 194.964 150.084 192.451C150.043 189.939 151.992 187.842 154.5 187.696L159.243 187.537C159.413 187.518 159.571 187.593 159.732 187.604C162.025 171.432 175.854 159.405 192.187 159.375C210.282 159.375 225 174.093 225 192.188L225 192.188L225 192.188ZM215.625 192.188C215.625 179.268 205.105 168.75 192.188 168.75C179.268 168.75 168.75 179.268 168.75 192.188C168.75 205.105 179.268 215.625 192.188 215.625C205.105 215.625 215.625 205.105 215.625 192.188L215.625 192.188L215.625 192.188Z" id="Shape" fill="#2088FF" fill-rule="evenodd" stroke="none" />
      </g>
      <g id="Gitee" transform="translate(975 0)">
        <path d="M149.81 0C67.0422 0.0947571 0 67.2315 0 150C0 232.832 67.1685 300 150 300C232.831 300 300 232.832 300 150C300 67.1685 232.831 0 150 0L149.81 0L149.81 0Z" id="Shape-path" fill="#C71D23" fill-rule="evenodd" stroke="none" />
        <path d="M225.916 66.6633C229.995 66.6684 233.299 69.9738 233.306 74.0526L233.306 92.6211C233.297 96.7109 229.974 100.019 225.884 100.01L122.21 100.01C116.314 100.008 110.658 102.35 106.488 106.52C102.318 110.69 99.9768 116.345 99.9789 122.242L99.9789 192.632C99.9782 194.598 100.761 196.484 102.154 197.87C103.547 199.257 105.436 200.031 107.401 200.021L177.789 200.021C183.687 200.024 189.342 197.682 193.512 193.512C197.682 189.342 200.024 183.687 200.021 177.789L200.021 174.095C200.019 170.01 196.716 166.694 192.632 166.674L140.716 166.674C136.637 166.668 133.332 163.364 133.326 159.284L133.326 159.284L133.326 140.747C133.335 136.658 136.658 133.349 140.747 133.358L225.948 133.358C230.037 133.349 233.36 136.658 233.368 140.747L233.368 183.348C233.355 210.968 210.972 233.339 183.366 233.337L74.1159 233.337C72.1471 233.339 70.2581 232.559 68.8659 231.167C67.4737 229.773 66.6925 227.885 66.6948 225.917L66.6948 225.917L66.6948 122.21C66.6948 91.5159 91.5789 66.6633 122.242 66.6633L225.916 66.6633L225.916 66.6633Z" id="Shape-path-2" fill="#FFFFFF" fill-rule="evenodd" stroke="none" />
      </g>
      <g id="Github">
        <path d="M0 0L300 0L300 300L0 300L0 0L0 0Z" id="Background" fill="none" fill-rule="evenodd" stroke="none" />
        <g id="Mask-group">
          <path d="M0 0L300 0L300 300L0 300L0 0L0 0Z" id="path_1" fill="none" fill-rule="evenodd" stroke="none" />
          <g clip-path="url(#mask_1)">
            <g id="Group">
              <path d="M0 150C0 67.1572 67.1572 0 150 0C232.842 0 300 67.1572 300 150C300 232.842 232.842 300 150 300C67.1572 300 0 232.842 0 150L0 150Z" id="Circle" fill="#000000" fill-rule="evenodd" stroke="none" />
              <path d="M186.925 250.107C186.925 235.699 182.05 226.266 176.8 221.652C210.175 217.87 245.238 204.861 245.238 145.773C245.238 128.982 239.425 115.267 229.863 104.5C231.363 100.617 236.425 84.9795 228.363 63.7923C228.363 63.7923 215.8 59.6652 187.3 79.5579C175.3 76.1355 162.55 74.4435 149.8 74.3667C137.05 74.4435 124.3 76.1355 112.3 79.5579C83.6124 59.6652 71.0499 63.7923 71.0499 63.7923C62.9874 84.9795 68.0499 100.617 69.7374 104.5C60.1125 115.267 54.3 128.982 54.3 145.773C54.3 204.706 89.3124 217.935 122.625 221.779C118.337 225.625 114.475 232.405 113.125 242.352C104.55 246.286 82.8126 253.08 69.4374 229.56C69.4374 229.56 61.5249 214.794 46.4625 213.717C46.4625 213.717 31.8249 213.525 45.4125 223.062C45.4125 223.062 55.275 227.804 62.1 245.556C62.1 245.556 70.8999 275.472 112.625 266.191C112.687 279.009 112.813 288.687 112.813 292.339C112.814 293.323 112.652 294.3 112.333 295.23C136.832 301.536 162.522 301.59 187.047 295.387C186.835 294.346 186.732 293.287 186.738 292.224C186.738 287.226 186.925 270.691 186.925 250.107L186.925 250.107L186.925 250.107Z" id="Shape#1" fill="#FFFFFF" fill-rule="evenodd" stroke="none" />
            </g>
          </g>
        </g>
      </g>
    </g>
  </g>
</svg>