<?xml version="1.0" encoding="utf-8"?>
<svg width="1920px" height="1080px" viewBox="0 0 1920 1080" version="1.1" xmlns:xlink="http://www.w3.org/1999/xlink" xmlns="http://www.w3.org/2000/svg">
  <g id="featuredImagePreview">
    <path d="M0 0L1920 0L1920 1080L0 1080L0 0Z" id="Rectangle" fill="none" fill-rule="evenodd" stroke="none" />
    <path d="M954.871 601.32L924.783 570L1024.37 482.727L1042.14 501.906L954.871 601.32ZM1084.37 690C1115.69 658.68 1136.28 615.044 1136.28 565.953C1136.28 469.179 1057.1 390 960.326 390C863.551 390 784.372 469.179 784.372 565.953C784.372 615.044 803.551 658.68 836.279 690L860.912 665.367C835.047 639.501 819.915 605.367 819.915 565.777C819.83 488.293 882.508 425.387 959.983 425.191L960.326 425.191C997.524 425.124 1033.22 439.848 1059.56 466.118C1085.9 492.389 1100.71 528.051 1100.74 565.249L1100.74 565.601C1100.74 603.783 1084.37 639.326 1059.74 665.191L1084.37 690Z" id="Shape" fill="#000000" fill-rule="evenodd" stroke="none" />
  </g>
</svg>