<?xml version="1.0" encoding="utf-8"?>
<svg width="1920px" height="1080px" viewBox="0 0 1920 1080" version="1.1" xmlns:xlink="http://www.w3.org/1999/xlink" xmlns="http://www.w3.org/2000/svg">
  <g id="featuredImagePreview">
    <path d="M0 0L1920 0L1920 1080L0 1080L0 0Z" id="Rectangle" fill="none" fill-rule="evenodd" stroke="none" />
    <path d="M1104.33 527.622L973.339 396.648C965.789 389.11 953.564 389.11 945.989 396.648L918.851 423.835L953.352 458.335C961.414 455.647 970.589 457.46 976.964 463.847C983.414 470.285 985.189 479.572 982.439 487.597L1015.66 520.847C1023.73 518.059 1033 519.872 1039.41 526.284C1048.43 535.284 1048.43 549.834 1039.41 558.834C1030.43 567.821 1015.9 567.821 1006.91 558.834C1000.18 552.071 998.49 542.121 1001.86 533.884L970.752 502.934L970.752 584.496C972.952 585.571 975.027 587.033 976.852 588.846C985.764 597.858 985.764 612.383 976.852 621.346C967.864 630.358 953.239 630.358 944.239 621.346C935.251 612.358 935.251 597.858 944.239 588.871C946.514 586.621 949.076 584.921 951.802 583.796L951.802 501.434C949.089 500.297 946.501 498.659 944.301 496.422C937.489 489.609 935.851 479.647 939.351 471.31L905.451 437.247L815.625 527.009C808.125 534.571 808.125 546.809 815.625 554.371L946.626 685.332C954.177 692.882 966.402 692.882 973.952 685.332L1104.33 554.959C1111.89 547.421 1111.89 535.184 1104.33 527.622" id="Shape" fill="#F05032" fill-rule="evenodd" stroke="none" />
  </g>
</svg>