<?xml version="1.0" encoding="utf-8"?>
<svg width="1920px" height="1080px" viewBox="0 0 1920 1080" version="1.1" xmlns:xlink="http://www.w3.org/1999/xlink" xmlns="http://www.w3.org/2000/svg">
  <g id="featuredImagePreview">
    <path d="M0 0L1920 0L1920 1080L0 1080L0 0L0 0Z" id="Rectangle" fill="none" fill-rule="evenodd" stroke="none" />
    <path d="M1169.11 479.486L1169.11 452.461C1171.77 452.263 1174.45 452.149 1177.12 452.12C1251.24 449.777 1299.83 515.885 1299.83 515.885C1299.83 515.885 1247.4 588.664 1191.16 588.664C1183.64 588.664 1176.29 587.493 1169.28 585.168L1169.28 503.034C1198.15 506.53 1203.99 519.23 1221.19 548.108L1259.75 515.715C1259.75 515.715 1231.55 478.825 1184.15 478.825C1179.13 478.712 1174.1 478.933 1169.11 479.486M1169.11 390L1169.11 430.406L1177.12 429.895C1280.12 426.399 1347.4 514.373 1347.4 514.373C1347.4 514.373 1270.29 608.187 1189.97 608.187C1182.98 608.187 1176.12 607.526 1169.28 606.354L1169.28 631.395C1174.95 632.056 1180.81 632.567 1186.47 632.567C1261.26 632.567 1315.36 594.334 1367.77 549.26C1376.45 556.272 1411.99 573.13 1419.36 580.481C1369.6 622.21 1253.58 655.774 1187.8 655.774C1181.47 655.774 1175.46 655.434 1169.45 654.773L1169.45 690L1453.57 690L1453.57 390L1169.11 390ZM1169.11 585.149L1169.11 606.524C1099.99 594.164 1080.79 522.235 1080.79 522.235C1080.79 522.235 1114.02 485.496 1169.11 479.486L1169.11 502.864L1168.96 502.864C1140.08 499.349 1117.36 526.393 1117.36 526.393C1117.36 526.393 1130.21 571.977 1169.13 585.168M1046.42 519.211C1046.42 519.211 1087.31 458.792 1169.26 452.442L1169.26 430.406C1078.49 437.757 1000 514.543 1000 514.543C1000 514.543 1044.41 643.093 1169.11 654.773L1169.11 631.395C1077.64 620.055 1046.42 519.211 1046.42 519.211L1046.42 519.211Z" id="NVIDIA" fill="#76B900" fill-rule="evenodd" stroke="none" />
    <path d="M744.052 549.831C739.052 549.831 745.052 557.407 751.564 560.438C753.314 556.65 754.939 552.104 756.439 547.938C752.878 550.569 748.249 551.278 744.064 549.831M772.027 541.938C775.837 538.286 778.657 533.726 780.217 528.688C779.167 532.063 776.727 534.937 774.467 537.813C761.407 543.687 773.247 534.438 774.467 530.812C760.537 543.438 772.557 538.312 772.027 541.938M790.077 520.806C793.077 505.125 781.677 509.91 778.077 516C782.277 516.87 785.877 526.873 790.077 520.785M725.391 393.875C729.682 398.042 735.047 401.167 734.402 406.375C739.337 401.167 740.411 395.958 725.177 393.875M741.177 395.375L728.677 407.875L740.344 403.709L740.344 395.376M813.337 519.675C813.587 527.675 810.837 531.55 808.587 538.425L804.217 540.687C800.717 547.437 804.587 545.062 802.087 550.437C796.587 555.312 785.337 565.687 781.837 566.699C779.327 566.699 783.587 563.574 784.217 562.449C776.827 567.449 778.197 569.949 767.077 573.074L766.697 572.324C738.937 585.324 700.413 559.574 701.038 524.299C700.663 526.424 700.163 525.924 699.538 526.799C697.985 508.434 707.938 491.02 724.55 483.037C739.867 475.327 758.333 477.702 771.197 489.037C763.087 478.52 750.464 472.487 737.188 472.787C722.438 472.912 708.676 482.286 704.051 492.412C696.551 497.161 695.676 510.787 692.426 513.174C687.913 545.686 700.676 559.699 722.176 576.199C725.551 578.574 723.176 578.824 723.676 580.574C716.371 577.108 709.86 572.172 704.551 566.075C707.263 570.371 710.638 574.21 714.551 577.45C707.676 575.2 698.676 561.2 696.051 560.575C707.676 581.325 743.301 597.088 761.817 589.325C751.97 590.022 742.085 588.834 732.688 585.825C728.563 583.825 723.063 579.45 723.938 578.7C748.585 589.07 776.937 585.035 797.717 568.2C803.217 563.825 809.337 556.45 811.087 556.325C808.587 560.325 811.587 558.325 809.587 561.825C815.087 552.825 807.087 558.075 815.337 546.325L818.337 550.45C817.217 542.95 827.587 533.938 826.587 522.175C828.967 518.425 829.087 525.925 826.587 534.3C830.217 525.05 827.587 523.675 828.467 516.05C829.607 518.604 830.567 521.236 831.337 523.925C829.087 515.175 833.837 508.925 834.837 503.925C833.717 503.3 831.337 507.675 830.837 497.3C830.837 492.675 832.087 494.8 832.587 493.8C831.587 493.175 829.337 489.8 827.837 483.038C828.837 481.413 830.587 487.163 832.087 487.288C831.087 482.038 829.587 477.913 829.587 473.788C825.337 465.288 828.087 475.038 824.587 470.038C820.337 456.4 828.337 466.913 828.837 460.788C835.587 470.413 839.337 485.288 841.097 491.538C839.767 484.026 837.717 476.659 834.977 469.537C836.977 470.413 831.727 454.025 837.597 464.913C829.817 441.488 813.467 421.872 791.827 410C794.077 412.125 797.077 414.875 795.947 415.25C786.577 409.625 788.197 409.25 786.827 406.875C779.197 403.75 778.697 407.125 773.577 406.875C759.076 399.125 756.326 400 743.051 395L743.676 397.875C734.051 394.75 732.426 399.125 722.051 397.875C721.426 397.375 725.426 396.125 728.676 395.625C719.414 396.875 719.914 393.875 710.789 396C712.992 394.521 715.289 393.184 717.664 392C710.164 392.5 699.664 396.375 702.914 392.875C690.551 398.5 668.639 406.25 656.389 417.75L656.026 415C650.401 421.75 631.526 435.138 630.026 443.888L628.389 444.263C625.514 449.263 623.639 454.888 621.264 460.025C617.514 466.525 615.639 462.525 616.264 463.525C608.764 478.775 605.014 491.663 601.764 502.3C604.014 505.675 601.764 522.925 602.639 536.8C598.889 605.088 650.639 671.5 707.176 686.875C715.551 689.75 727.801 689.75 738.301 690C725.926 686.5 724.302 688.125 712.302 683.875C703.552 679.875 701.677 675.125 695.552 669.75L698.052 674.125C685.914 669.875 690.927 668.875 681.039 665.75L683.664 662.375C679.789 662 673.289 655.75 671.539 652.25L667.289 652.375C662.164 646.113 659.414 641.488 659.664 637.863L658.276 640.363C656.652 637.738 639.277 616.6 648.277 621.475C646.652 619.975 644.402 618.975 642.027 614.6L643.777 612.475C639.402 606.975 635.777 599.725 636.027 597.475C638.527 600.475 640.027 601.225 641.652 601.6C630.652 574.45 630.027 600.1 621.639 574.075L623.514 573.825C622.307 571.766 621.222 569.637 620.264 567.45L621.014 559.95C613.139 550.7 618.764 521.175 619.889 504.925C620.764 498.175 626.514 491.175 630.889 480.163L628.264 479.663C633.264 470.788 657.526 443.763 668.776 445.15C674.151 438.275 667.651 445.15 666.526 443.4C678.526 431.013 682.276 434.65 690.289 432.4C699.039 427.388 682.789 434.4 686.914 430.513C701.914 426.763 697.539 421.763 717.176 419.888C719.176 421.138 712.301 421.638 710.676 423.138C723.177 417.013 750.064 418.513 767.697 426.513C788.077 436.138 810.967 464.15 811.837 490.663L812.837 490.913C812.337 501.538 814.467 513.675 810.717 524.8L813.217 519.55M689.958 555.45L689.177 558.95C693.238 563.325 696.521 568.075 701.677 571.575C697.927 565.7 695.113 563.325 689.958 555.325M702.688 555.961C699.305 554 696.263 551.506 693.677 548.575C696.001 553.12 701.234 557.098 706.177 561.075L702.688 555.961M837.367 525.3L836.207 527.175C834.357 537.07 830.497 546.481 824.867 554.825C831.227 546.08 835.447 535.969 837.197 525.3M726.177 402.5C729.552 392.083 734.427 397.292 738.052 390C733.427 393.125 728.802 395.208 724.302 400.417L726.177 402.5M611.273 454.275C613.677 466.019 596.503 470.758 615.051 462.929C625.355 449.331 611.273 459.22 611.616 454.275M601.142 489.537C607.956 483.734 609.66 480.311 612.499 477.037C592.624 483.585 602.846 484.924 601.142 489.389" id="Debian" fill="#A81D33" fill-rule="evenodd" stroke="none" />
  </g>
</svg>