<?xml version="1.0" encoding="utf-8"?>
<svg width="1920px" height="1080px" viewBox="0 0 1920 1080" version="1.1" xmlns:xlink="http://www.w3.org/1999/xlink" xmlns="http://www.w3.org/2000/svg">
  <g id="featuredImagePreview">
    <g id="featuredImagePreview">
      <path d="M0 0L1920 0L1920 1080L0 1080L0 0L0 0L0 0Z" id="Rectangle" fill="none" fill-rule="evenodd" stroke="none" />
      <g id="Nginx" transform="translate(200 390)">
        <path d="M129.938 0L0 75L0 225L129.938 300L259.875 225L259.875 75L129.938 0L129.938 0L129.938 0Z" id="Nginx" fill="#009639" fill-rule="evenodd" stroke="none" />
        <path d="M204.937 207.375C204.937 216.188 196.862 223.5 185.825 223.5C177.938 223.5 168.938 220.313 163.313 213.375L88.313 124.113L88.313 207.362C88.313 216.375 81.188 223.488 72.388 223.488L71.438 223.488C62.425 223.488 55.313 215.988 55.313 207.362L55.313 92.625C55.313 83.813 63.188 76.5 74.063 76.5C82.138 76.5 91.313 79.688 96.938 86.625L171.563 175.887L171.563 92.625C171.563 83.612 179.063 76.5 187.687 76.5L188.625 76.5C197.625 76.5 204.75 84 204.75 92.625L204.75 207.375L204.937 207.375L204.937 207.375L204.937 207.375Z" id="Nginx" fill="#FFFFFF" fill-rule="evenodd" stroke="none" />
      </g>
      <g id="HUGO" transform="translate(586.54004 390)">
        <path d="M0 92.9997L0 207C0 219.862 6.86157 231.747 18 238.177L116.727 295.177C127.865 301.608 141.589 301.608 152.727 295.177L251.454 238.177C262.592 231.746 269.454 219.861 269.454 206.999L269.454 92.9997C269.454 80.1381 262.592 68.2535 251.454 61.8227L152.727 4.82309C141.589 -1.6077 127.865 -1.6077 116.727 4.82309L18.0001 61.8235C6.86188 68.2541 0.000305176 80.1384 0 92.9997L0 92.9997L0 92.9997L0 92.9997L0 92.9997Z" id="Shape" fill="#C9177E" fill-rule="evenodd" stroke="none" />
        <path d="M26.0677 108.05L26.0677 191.95C26.0677 204.811 32.9293 216.696 44.0678 223.127L116.727 265.077C127.865 271.507 141.589 271.507 152.727 265.077L225.386 223.127C236.525 216.696 243.386 204.811 243.386 191.95L243.386 108.05C243.386 95.1887 236.525 83.304 225.386 76.8732L152.727 34.9234C141.589 28.4926 127.865 28.4926 116.727 34.9234L44.0679 76.8732C32.9294 83.304 26.0678 95.1886 26.0677 108.05L26.0677 108.05L26.0677 108.05L26.0677 108.05L26.0677 108.05Z" id="Shape#1" fill="#FF4088" fill-rule="evenodd" stroke="none" />
        <path d="M85.5428 210L85.5428 89.9996L106.239 89.9996L106.239 139.397L163.982 139.397L163.982 89.9996L183.911 89.9996L183.911 210L163.982 210L163.982 156.6L106.239 156.6L106.239 210L85.5428 210L85.5428 210L85.5428 210L85.5428 210Z" id="Shape#2" fill="#FFFFFF" fill-rule="evenodd" stroke="none" />
        <path d="M288.002 92.9997L288.002 207C288.002 219.862 294.863 231.747 306.002 238.177L404.729 295.177C415.867 301.608 429.59 301.608 440.729 295.177L539.456 238.177C550.594 231.746 557.456 219.861 557.456 206.999L557.456 92.9997C557.456 80.1381 550.594 68.2535 539.456 61.8227L440.729 4.82309C429.59 -1.6077 415.867 -1.6077 404.729 4.82309L306.002 61.8235C294.864 68.2541 288.002 80.1384 288.002 92.9997L288.002 92.9997L288.002 92.9997L288.002 92.9997L288.002 92.9997Z" id="Shape#3" fill="#0083C0" fill-rule="evenodd" stroke="none" />
        <path d="M314.069 108.05L314.069 191.95C314.069 204.811 320.931 216.696 332.07 223.127L404.729 265.077C415.867 271.507 429.59 271.507 440.729 265.077L513.388 223.127C524.526 216.696 531.388 204.811 531.388 191.95L531.388 108.05C531.388 95.1887 524.526 83.304 513.388 76.8732L440.729 34.9234C429.59 28.4926 415.867 28.4926 404.729 34.9234L332.07 76.8732C320.931 83.304 314.07 95.1886 314.069 108.05L314.069 108.05L314.069 108.05L314.069 108.05L314.069 108.05Z" id="Shape#4" fill="#0594CB" fill-rule="evenodd" stroke="none" />
        <path d="M576.004 92.9997L576.004 207C576.004 219.862 582.865 231.747 594.004 238.177L692.73 295.177C703.869 301.608 717.592 301.608 728.731 295.177L827.457 238.177C838.596 231.746 845.458 219.861 845.458 206.999L845.458 92.9997C845.458 80.1381 838.596 68.2535 827.457 61.8227L728.731 4.82309C717.592 -1.6077 703.869 -1.6077 692.73 4.82309L594.004 61.8235C582.865 68.2541 576.004 80.1384 576.004 92.9997L576.004 92.9997L576.004 92.9997L576.004 92.9997L576.004 92.9997Z" id="Shape#5" fill="#00A88A" fill-rule="evenodd" stroke="none" />
        <path d="M602.071 108.05L602.071 191.95C602.071 204.811 608.933 216.696 620.071 223.127L692.73 265.077C703.869 271.507 717.592 271.507 728.731 265.077L801.39 223.127C812.528 216.696 819.39 204.811 819.39 191.95L819.39 108.05C819.39 95.1887 812.528 83.304 801.39 76.8732L728.731 34.9234C717.592 28.4926 703.869 28.4926 692.73 34.9234L620.071 76.8732C608.933 83.304 602.071 95.1886 602.071 108.05L602.071 108.05L602.071 108.05L602.071 108.05L602.071 108.05Z" id="Shape#6" fill="#33BA91" fill-rule="evenodd" stroke="none" />
        <path d="M864.005 92.9997L864.005 207C864.005 219.862 870.867 231.747 882.005 238.177L980.732 295.177C991.871 301.608 1005.59 301.608 1016.73 295.177L1115.46 238.177C1126.6 231.746 1133.46 219.861 1133.46 206.999L1133.46 92.9997C1133.46 80.1381 1126.6 68.2535 1115.46 61.8227L1016.73 4.82309C1005.59 -1.6077 991.871 -1.6077 980.732 4.82309L882.005 61.8235C870.867 68.2541 864.006 80.1384 864.005 92.9997L864.005 92.9997L864.005 92.9997L864.005 92.9997L864.005 92.9997Z" id="Shape#7" fill="#FCD804" fill-rule="evenodd" stroke="none" />
        <path d="M890.073 108.05L890.073 191.95C890.073 204.811 896.935 216.696 908.073 223.127L980.732 265.077C991.871 271.507 1005.59 271.507 1016.73 265.077L1089.39 223.127C1100.53 216.696 1107.39 204.811 1107.39 191.95L1107.39 108.05C1107.39 95.1887 1100.53 83.304 1089.39 76.8732L1016.73 34.9234C1005.59 28.4926 991.871 28.4926 980.732 34.9234L908.073 76.8732C896.935 83.304 890.073 95.1886 890.073 108.05L890.073 108.05L890.073 108.05L890.073 108.05L890.073 108.05Z" id="Shape#8" fill="#EBB951" fill-rule="evenodd" stroke="none" />
        <path d="M421.847 210C406.563 210 394.919 206.137 386.913 198.412C378.906 190.686 374.904 179.433 374.905 164.654L374.905 89.9996L395.311 89.9996L395.311 163.142C395.311 172.883 397.704 180.427 402.491 185.774C407.277 191.12 413.925 193.793 422.435 193.793C431.448 193.793 438.334 191.022 443.093 185.48C447.851 179.937 450.231 172.155 450.231 162.134L450.231 89.9996L470.553 89.9996L470.553 163.31C470.553 178.37 466.368 189.916 457.998 197.95C449.629 205.984 437.578 210 421.847 210L421.847 210L421.847 210L421.847 210L421.847 210Z" id="Shape#9" fill="#FFFFFF" fill-rule="evenodd" stroke="none" />
        <path d="M714.372 210C697.489 210 684.399 204.69 675.103 194.069C665.806 183.448 661.158 168.593 661.158 149.503C661.158 130.303 665.71 115.586 674.813 105.351C683.917 95.117 696.91 89.9997 713.793 89.9996C725.434 89.9996 735.007 92.3031 742.51 96.91C750.014 101.517 755.503 108.538 758.979 117.972L740.441 123.6C736.138 111.903 727.172 106.055 713.544 106.055C703.061 106.055 695.103 109.793 689.668 117.269C684.234 124.745 681.517 135.49 681.517 149.503C681.517 163.517 684.427 174.441 690.248 182.276C696.068 190.11 704.165 194.027 714.537 194.027C725.296 194.027 734.262 190.607 741.434 183.765L741.434 163.241L713.958 163.241L713.958 148.428L760.303 148.428L760.303 190.966C754.785 197.031 747.967 201.77 740.359 204.828C732.134 208.288 723.294 210.048 714.372 210L714.372 210L714.372 210L714.372 210L714.372 210Z" id="Shape#10" fill="#FFFFFF" fill-rule="evenodd" stroke="none" />
        <path d="M1054.76 149.503C1054.76 161.807 1052.51 172.552 1048.02 181.738C1043.86 190.558 1037.1 197.893 1028.65 202.759C1020.24 207.587 1010.24 210 998.65 210C980.884 210 967.118 204.69 957.353 194.069C947.587 183.448 942.704 168.593 942.704 149.503C942.704 130.579 947.614 115.931 957.435 105.558C967.256 95.1858 981.049 89.9996 998.815 89.9996C1016.58 89.9996 1030.35 95.241 1040.11 105.724C1049.88 116.207 1054.76 130.8 1054.76 149.503L1054.76 149.503L1054.76 149.503L1054.76 149.503L1054.76 149.503ZM1034.24 149.503C1034.24 135.6 1031.2 124.883 1025.13 117.352C1019.06 109.82 1010.29 106.055 998.816 106.055C987.119 106.055 978.236 109.793 972.167 117.269C966.098 124.745 963.064 135.49 963.064 149.503C963.064 163.517 966.14 174.441 972.292 182.276C978.444 190.11 987.23 194.027 998.65 194.028C1010.35 194.028 1019.2 190.249 1025.22 182.69C1031.23 175.132 1034.24 164.069 1034.24 149.503L1034.24 149.503L1034.24 149.503L1034.24 149.503L1034.24 149.503Z" id="Shape#11" fill="#FFFFFF" fill-rule="evenodd" stroke="none" />
      </g>
    </g>
  </g>
</svg>