<svg id="图层_1" data-name="图层 1" xmlns="http://www.w3.org/2000/svg" viewBox="0 0 700 700"><rect width="700" height="700" style="fill:#f2f2f2"/><polygon points="405.394 438.5 381.42 311.5 507.801 311.5 483.827 438.5 405.394 438.5" style="fill:#29abe2"/><path d="M655.99109,463,632.58337,587h-75.946L533.22961,463H655.99109m3.61926-3h-130L554.1507,590H635.07l24.54034-130Z" transform="translate(-150 -150)"/><path d="M594.50293,443.14209a10.54542,10.54542,0,0,1-7.99316-4.10645,6.35987,6.35987,0,0,1-1.14551-5.69238c1.1748-3.918,7.48144-13.46533,9.21679-16.0498.99024,1.648,2.09278,3.26074,3.16309,4.82617,2.40625,3.51855,4.89356,7.15723,6.11133,11.22363a6.36911,6.36911,0,0,1-1.1709,5.73438,10.54991,10.54991,0,0,1-8.084,4.06494Z" transform="translate(-150 -150)" style="fill:#29abe2"/><path d="M594.56232,418.22092c.88678,1.427,1.84063,2.82232,2.77044,4.18249,2.49317,3.64719,4.84809,7.0921,6.043,11.08316a5.88647,5.88647,0,0,1-1.09216,5.29245,10.027,10.027,0,0,1-7.68292,3.86362l-.0918-.00052a10.02063,10.02063,0,0,1-7.59589-3.90268,5.877,5.877,0,0,1-1.06927-5.25272c1.07245-3.58,6.56012-12.02282,8.71857-15.2658m.04748-1.86359s-8.32879,12.18494-9.724,16.84244c-1.614,5.388,4.16,10.38009,9.6117,10.44229.03412.0004.069.00058.10321.00058,5.50464,0,11.3609-5.00592,9.73309-10.44287-1.85937-6.21027-6.48266-11.22827-9.724-16.84244Z" transform="translate(-150 -150)"/><path d="M594.50293,393.14209a10.54542,10.54542,0,0,1-7.99316-4.10645,6.35987,6.35987,0,0,1-1.14551-5.69238c1.1748-3.918,7.48144-13.46533,9.21679-16.0498.99024,1.648,2.09278,3.26074,3.16309,4.82617,2.40625,3.51855,4.89356,7.15723,6.11133,11.22363a6.36911,6.36911,0,0,1-1.1709,5.73438,10.54991,10.54991,0,0,1-8.084,4.06494Z" transform="translate(-150 -150)" style="fill:#29abe2"/><path d="M594.56232,368.22092c.88678,1.427,1.84063,2.82232,2.77044,4.18249,2.49317,3.64719,4.84809,7.0921,6.043,11.08316a5.88647,5.88647,0,0,1-1.09216,5.29245,10.027,10.027,0,0,1-7.68292,3.86362l-.0918-.00052a10.02063,10.02063,0,0,1-7.59589-3.90268,5.877,5.877,0,0,1-1.06927-5.25272c1.07245-3.58,6.56012-12.02282,8.71857-15.2658m.04748-1.86359s-8.32879,12.18494-9.724,16.84244c-1.614,5.388,4.16,10.38009,9.6117,10.44229.03412.0004.069.00058.10321.00058,5.50464,0,11.3609-5.00592,9.73309-10.44287-1.85937-6.21027-6.48266-11.22827-9.724-16.84244Z" transform="translate(-150 -150)"/><path d="M594.50293,668.1416a10.546,10.546,0,0,1-7.99316-4.10547,6.36023,6.36023,0,0,1-1.14551-5.69238c1.1748-3.91895,7.48144-13.46582,9.21679-16.05078.99024,1.64844,2.09278,3.26074,3.16309,4.82617,2.40625,3.51856,4.89356,7.15723,6.11133,11.22461a6.36667,6.36667,0,0,1-1.1709,5.7334,10.54846,10.54846,0,0,1-8.083,4.06543Z" transform="translate(-150 -150)" style="fill:#29abe2"/><path d="M594.56232,643.221c.88678,1.427,1.84057,2.82226,2.77038,4.18243,2.49323,3.64722,4.84815,7.0921,6.04309,11.08319a5.88663,5.88663,0,0,1-1.09216,5.29242,10.0273,10.0273,0,0,1-7.683,3.86371l-.09168-.00055a10.02094,10.02094,0,0,1-7.596-3.90277,5.877,5.877,0,0,1-1.06921-5.25262c1.07245-3.58008,6.56012-12.02289,8.71857-15.26581m.04748-1.86359s-8.32879,12.18488-9.724,16.84241c-1.614,5.388,4.16,10.38006,9.6117,10.44232.03412.00037.069.00061.10309.00061,5.5047,0,11.361-5.006,9.73321-10.44293-1.85937-6.21027-6.48266-11.22827-9.724-16.84241Z" transform="translate(-150 -150)"/><path d="M594.50293,703.1416a10.546,10.546,0,0,1-7.99316-4.10547,6.36023,6.36023,0,0,1-1.14551-5.69238c1.1748-3.91895,7.48144-13.46582,9.21679-16.05078.99024,1.64844,2.09278,3.26074,3.16309,4.82617,2.40625,3.51856,4.89356,7.15723,6.11133,11.22461a6.36667,6.36667,0,0,1-1.1709,5.7334,10.54846,10.54846,0,0,1-8.083,4.06543Z" transform="translate(-150 -150)" style="fill:#29abe2"/><path d="M594.56232,678.221c.88678,1.427,1.84057,2.82226,2.77038,4.18243,2.49323,3.64722,4.84815,7.0921,6.04309,11.08319a5.88663,5.88663,0,0,1-1.09216,5.29242,10.0273,10.0273,0,0,1-7.683,3.86371l-.09168-.00055a10.02094,10.02094,0,0,1-7.596-3.90277,5.877,5.877,0,0,1-1.06921-5.25262c1.07245-3.58008,6.56012-12.02289,8.71857-15.26581m.04748-1.86359s-8.32879,12.18488-9.724,16.84241c-1.614,5.388,4.16,10.38006,9.6117,10.44232.03412.00037.069.00061.10309.00061,5.5047,0,11.361-5.006,9.73321-10.44293-1.85937-6.21027-6.48266-11.22827-9.724-16.84241Z" transform="translate(-150 -150)"/><path d="M594.50293,633.1416a10.546,10.546,0,0,1-7.99316-4.10547,6.36023,6.36023,0,0,1-1.14551-5.69238c1.1748-3.91895,7.48144-13.46582,9.21679-16.05078.99024,1.64844,2.09278,3.26074,3.16309,4.82617,2.40625,3.51856,4.89356,7.15723,6.11133,11.22461a6.36667,6.36667,0,0,1-1.1709,5.7334,10.54846,10.54846,0,0,1-8.083,4.06543Z" transform="translate(-150 -150)" style="fill:#29abe2"/><path d="M594.56232,608.221c.88678,1.427,1.84057,2.82226,2.77038,4.18243,2.49323,3.64722,4.84815,7.0921,6.04309,11.08319a5.88663,5.88663,0,0,1-1.09216,5.29242,10.0273,10.0273,0,0,1-7.683,3.86371l-.09168-.00055a10.02094,10.02094,0,0,1-7.596-3.90277,5.877,5.877,0,0,1-1.06921-5.25262c1.07245-3.58008,6.56012-12.02289,8.71857-15.26581m.04748-1.86359s-8.32879,12.18488-9.724,16.84241c-1.614,5.388,4.16,10.38006,9.6117,10.44232.03412.00037.069.00061.10309.00061,5.5047,0,11.361-5.006,9.73321-10.44293-1.85937-6.21027-6.48266-11.22827-9.724-16.84241Z" transform="translate(-150 -150)"/><path d="M494.50342,538.1416a10.54264,10.54264,0,0,1-7.99268-4.10547,6.35883,6.35883,0,0,1-1.146-5.69238c1.17382-3.91895,7.481-13.46582,9.2163-16.05078.99122,1.64941,2.09424,3.26269,3.16456,4.8291,2.40527,3.51758,4.89209,7.15527,6.10888,11.22168a6.36654,6.36654,0,0,1-1.16992,5.73437,10.54977,10.54977,0,0,1-8.083,4.06446Z" transform="translate(-150 -150)" style="fill:#29abe2"/><path d="M494.56232,513.221c.88678,1.427,1.8406,2.82226,2.77038,4.18243,2.49323,3.64722,4.84815,7.0921,6.04309,11.08319a5.88663,5.88663,0,0,1-1.09213,5.29242,10.02721,10.02721,0,0,1-7.683,3.86371l-.09168-.00055a10.02089,10.02089,0,0,1-7.596-3.90277,5.87707,5.87707,0,0,1-1.06921-5.25269c1.07239-3.58,6.56009-12.02282,8.71854-15.26574m.04748-1.86362s-8.32879,12.18491-9.724,16.84244c-1.614,5.388,4.15995,10.38006,9.6117,10.44232.03412.00037.069.00061.10309.00061,5.5047,0,11.361-5.006,9.73315-10.44293-1.85934-6.21027-6.48263-11.22827-9.724-16.84244Z" transform="translate(-150 -150)"/><path d="M494.50342,573.1416a10.54264,10.54264,0,0,1-7.99268-4.10547,6.35883,6.35883,0,0,1-1.146-5.69238c1.17382-3.91895,7.481-13.46582,9.2163-16.05078.99122,1.64941,2.09424,3.26269,3.16456,4.8291,2.40527,3.51758,4.89209,7.15527,6.10888,11.22168a6.36654,6.36654,0,0,1-1.16992,5.73437,10.54977,10.54977,0,0,1-8.083,4.06446Z" transform="translate(-150 -150)" style="fill:#29abe2"/><path d="M494.56229,548.221c.88681,1.427,1.8406,2.82226,2.77038,4.18237,2.49323,3.64722,4.84818,7.09216,6.04312,11.08325a5.88663,5.88663,0,0,1-1.09213,5.29242,10.02721,10.02721,0,0,1-7.683,3.86371l-.09168-.00055a10.02089,10.02089,0,0,1-7.596-3.90277,5.87707,5.87707,0,0,1-1.06921-5.25269c1.07239-3.58,6.56009-12.02282,8.71851-15.26574m.04751-1.86359s-8.32879,12.18488-9.724,16.84241c-1.614,5.388,4.15995,10.38006,9.6117,10.44232.03412.00037.069.00061.10309.00061,5.5047,0,11.361-5.006,9.73315-10.44293-1.85934-6.21027-6.48263-11.22827-9.724-16.84241Z" transform="translate(-150 -150)"/><path d="M494.50342,503.1416a10.54422,10.54422,0,0,1-7.99268-4.10547,6.3595,6.3595,0,0,1-1.146-5.69287c1.17431-3.91894,7.481-13.46533,9.2163-16.0498.99122,1.64892,2.09424,3.2622,3.165,4.82861,2.40479,3.51807,4.89161,7.15576,6.10938,11.22119a6.36911,6.36911,0,0,1-1.1709,5.73438,10.55028,10.55028,0,0,1-8.083,4.06494Z" transform="translate(-150 -150)" style="fill:#29abe2"/><path d="M494.56232,478.22092c.88678,1.427,1.8406,2.82229,2.77038,4.18246,2.49323,3.64719,4.84815,7.0921,6.04309,11.08322a5.88663,5.88663,0,0,1-1.09213,5.29242,10.027,10.027,0,0,1-7.68292,3.86362l-.0918-.00052a10.02079,10.02079,0,0,1-7.59592-3.90268,5.8771,5.8771,0,0,1-1.06924-5.25272c1.07239-3.58,6.56009-12.02282,8.71854-15.2658m.04748-1.86359s-8.32879,12.18494-9.724,16.84244c-1.614,5.388,4.15995,10.38009,9.6117,10.44229.03412.0004.06906.00058.10321.00058,5.50467,0,11.36087-5.00592,9.733-10.44287-1.85934-6.21027-6.48263-11.22827-9.724-16.84244Z" transform="translate(-150 -150)"/><path d="M594.50293,323.14209a10.54542,10.54542,0,0,1-7.99316-4.10645,6.35987,6.35987,0,0,1-1.14551-5.69238c1.1748-3.918,7.48144-13.46533,9.21679-16.0498.99024,1.648,2.09278,3.26074,3.16309,4.82617,2.40625,3.51855,4.89356,7.15723,6.11133,11.22363a6.36911,6.36911,0,0,1-1.1709,5.73438,10.54991,10.54991,0,0,1-8.084,4.06494Z" transform="translate(-150 -150)" style="fill:#29abe2"/><path d="M594.56232,298.22092c.88678,1.427,1.84063,2.82232,2.77044,4.18249,2.49317,3.64719,4.84809,7.0921,6.043,11.08316a5.88647,5.88647,0,0,1-1.09216,5.29245,10.027,10.027,0,0,1-7.68292,3.86362l-.0918-.00052a10.02063,10.02063,0,0,1-7.59589-3.90268,5.877,5.877,0,0,1-1.06927-5.25272c1.07245-3.58,6.56012-12.02282,8.71857-15.2658m.04748-1.86359s-8.32879,12.18494-9.724,16.84244c-1.614,5.388,4.16,10.38009,9.6117,10.44229.03412.0004.069.00058.10321.00058,5.50464,0,11.3609-5.00592,9.73309-10.44287-1.85937-6.21027-6.48266-11.22827-9.724-16.84244Z" transform="translate(-150 -150)"/><text transform="translate(232.44556 218.2233)" style="font-size:21px;font-family:DengXian">Water can be <tspan x="0" y="25.2002">added intermittently</tspan></text><text transform="translate(150.38989 380.82324)" style="font-size:21px;font-family:DengXian">Overflow when full</text><text transform="translate(203.35938 493.22302)" style="font-size:21px;font-family:DengXian">Leaks out at a constant <tspan x="0" y="25.2002">rate until empty</tspan></text></svg>