<svg id="图层_1" data-name="图层 1" xmlns="http://www.w3.org/2000/svg" viewBox="0 0 700 700"><rect width="700" height="700" style="fill:#f2f2f2"/><text transform="translate(195.93604 148.2229)" style="font-size:21px;font-family:DengXian">Tokens arrive at <tspan x="0" y="25.2002">a constant rate</tspan></text><text transform="translate(7.02808 450.82275)" style="font-size:21px;font-family:DengXian">Icoming Packets</text><text transform="translate(218.69116 525.82275)" style="font-size:21px;font-family:DengXian">Fixed Length packet queue</text><text transform="translate(603.84717 463.22266)" style="font-size:21px;font-family:DengXian">Outgoing <tspan x="0" y="25.2002">packets</tspan></text><line x1="45" y1="468" x2="176" y2="468" style="fill:none;stroke:#000;stroke-miterlimit:10;stroke-width:3px"/><line x1="153" y1="460" x2="176" y2="468" style="fill:none;stroke:#000;stroke-miterlimit:10;stroke-width:3px"/><line x1="153" y1="476" x2="176" y2="468" style="fill:none;stroke:#000;stroke-miterlimit:10;stroke-width:3px"/><line x1="489" y1="468" x2="580" y2="468" style="fill:none;stroke:#000;stroke-miterlimit:10;stroke-width:3px"/><line x1="557" y1="460" x2="580" y2="468" style="fill:none;stroke:#000;stroke-miterlimit:10;stroke-width:3px"/><line x1="557" y1="476" x2="580" y2="468" style="fill:none;stroke:#000;stroke-miterlimit:10;stroke-width:3px"/><circle cx="206" cy="202" r="10"/><circle cx="256" cy="202" r="10"/><circle cx="306" cy="202" r="10"/><circle cx="356" cy="202" r="10"/><circle cx="406" cy="240" r="10"/><circle cx="438" cy="302" r="10"/><circle cx="392" cy="326" r="10"/><circle cx="415" cy="326" r="10"/><circle cx="438" cy="326" r="10"/><circle cx="461" cy="326" r="10"/><circle cx="484" cy="326" r="10"/><circle cx="403.5" cy="347" r="10"/><circle cx="426.5" cy="347" r="10"/><circle cx="449.5" cy="347" r="10"/><circle cx="472.5" cy="347" r="10"/><circle cx="415" cy="368" r="10"/><circle cx="438" cy="368" r="10"/><circle cx="461" cy="368" r="10"/><line x1="327.97079" y1="242.55377" x2="404.02921" y2="381.44623" style="stroke:#000;stroke-miterlimit:10;stroke-width:3px"/><line x1="471.97079" y1="381.44623" x2="548.02921" y2="242.55377" style="stroke:#000;stroke-miterlimit:10;stroke-width:3px"/><line x1="447" y1="381" x2="404" y2="381" style="fill:none;stroke:#000;stroke-miterlimit:10;stroke-width:3px"/><line x1="447" y1="393" x2="447" y2="381" style="fill:none;stroke:#000;stroke-miterlimit:10;stroke-width:3px"/><line x1="447" y1="401" x2="447" y2="413" style="fill:none;stroke:#000;stroke-miterlimit:10;stroke-width:3px"/><line x1="447" y1="433" x2="447" y2="421" style="fill:none;stroke:#000;stroke-miterlimit:10;stroke-width:3px"/><line x1="447" y1="441" x2="447" y2="453" style="fill:none;stroke:#000;stroke-miterlimit:10;stroke-width:3px"/><line x1="463" y1="393" x2="463" y2="381" style="fill:none;stroke:#000;stroke-miterlimit:10;stroke-width:3px"/><line x1="463" y1="401" x2="463" y2="413" style="fill:none;stroke:#000;stroke-miterlimit:10;stroke-width:3px"/><line x1="463" y1="433" x2="463" y2="421" style="fill:none;stroke:#000;stroke-miterlimit:10;stroke-width:3px"/><line x1="463" y1="441" x2="463" y2="453" style="fill:none;stroke:#000;stroke-miterlimit:10;stroke-width:3px"/><line x1="463" y1="381" x2="472" y2="381" style="fill:none;stroke:#000;stroke-miterlimit:10;stroke-width:3px"/><rect x="189" y="450" width="36" height="36" style="fill:none;stroke:#000;stroke-miterlimit:10;stroke-width:2px"/><rect x="225" y="450" width="36" height="36" style="fill:none;stroke:#000;stroke-miterlimit:10;stroke-width:2px"/><rect x="261" y="450" width="36" height="36" style="fill:none;stroke:#000;stroke-miterlimit:10;stroke-width:2px"/><rect x="297" y="450" width="36" height="36" style="fill:none;stroke:#000;stroke-miterlimit:10;stroke-width:2px"/><rect x="333" y="450" width="36" height="36" style="fill:#b3b3b3;stroke:#000;stroke-miterlimit:10;stroke-width:2px"/><rect x="369" y="450" width="36" height="36" style="fill:#b3b3b3;stroke:#000;stroke-miterlimit:10;stroke-width:2px"/><rect x="405" y="450" width="36" height="36" style="fill:#b3b3b3;stroke:#000;stroke-miterlimit:10;stroke-width:2px"/><rect x="441" y="450" width="36" height="36" style="fill:#b3b3b3;stroke:#000;stroke-miterlimit:10;stroke-width:2px"/></svg>