<svg id="图层_1" data-name="图层 1" xmlns="http://www.w3.org/2000/svg" viewBox="0 0 1920 1080"><defs><style>.cls-1{fill:none;}.cls-2{fill:#dedede;}.cls-2,.cls-3,.cls-4{fill-rule:evenodd;}.cls-3{fill:#82bfa1;}.cls-4{fill:#fa6340;}</style></defs><rect class="cls-1" width="1920" height="1080"/><g id="word"><path id="Fill-7" class="cls-2" d="M740.09737,595.28289q13.58963,0,22.45989-4.49,8.86478-4.48506,8.86006-15.16981a22.09351,22.09351,0,0,0-1.57-8.74,17.197,17.197,0,0,0-5.23008-6.56,44.14727,44.14727,0,0,0-9.59014-5.57992q-5.95479-2.68515-14.69-6.33019-7.035-2.895-13.34988-5.94a54.62137,54.62137,0,0,1-11.17-7.03984,30.58844,30.58844,0,0,1-7.77-9.59014,29.25066,29.25066,0,0,1-2.91-13.58988q0-15.31525,11.53-24.77018,11.535-9.46463,31.69007-9.47982,12.86988,0,21.24,2.19a67.90627,67.90627,0,0,1,11.77986,3.88993l-3.64989,14.07993a94.04436,94.04436,0,0,0-9.83018-3.88994q-6.9147-2.41509-20.2699-2.42007a44.62,44.62,0,0,0-10.07992,1.09015,27.00252,27.00252,0,0,0-8.38007,3.39989,18.3334,18.3334,0,0,0-5.82,5.84015,16.11693,16.11693,0,0,0-2.19,8.63994,18.45642,18.45642,0,0,0,1.94,8.76,19.39191,19.39191,0,0,0,5.71,6.45,48.08676,48.08676,0,0,0,9.2301,5.22011q5.45991,2.4147,12.5,5.31,7.2897,2.91,13.9599,5.93a51.33133,51.33133,0,0,1,11.77986,7.26992,33.63214,33.63214,0,0,1,8.25,10.19q3.15015,5.95479,3.16011,14.94,0,16.99488-12.75,25.73008-12.73506,8.7449-34.83986,8.74975c-11.0101,0-19.43009-.95-25.25008-2.7998a97.30712,97.30712,0,0,1-11.66-4.25l4.13-14.33019a27.55937,27.55937,0,0,0,3.16,1.59014,66.40392,66.40392,0,0,0,6.55,2.42007,68.84476,68.84476,0,0,0,9.84,2.31,79.34493,79.34493,0,0,0,13.2301.96986"/><path id="Fill-9" class="cls-2" d="M809.36514,485.29285q7.035-1.93474,18.94-4.36976,11.895-2.43,29.13-2.43,14.32506,0,23.92005,4.13a36.715,36.715,0,0,1,15.3,11.77987,48.22087,48.22087,0,0,1,8.13,18.32993,106.26225,106.26225,0,0,1,2.43,23.56V606.453h-15.7901v-65.07a118.22421,118.22421,0,0,0-1.81995-22.57q-1.81526-9.24018-6.07-15.07a23.59528,23.59528,0,0,0-11.1601-8.37q-6.93-2.55032-17.37-2.55a130.9799,130.9799,0,0,0-19.28982,1.21986q-8.145,1.20008-10.57,2.18V606.453H809.36514V485.29285Z"/><path id="Fill-11" class="cls-2" d="M976.00416,478.008q12.38992,0,21.022,3.51992a36.044,36.044,0,0,1,13.93866,9.72012,38.09282,38.09282,0,0,1,7.7804,14.68,66.97369,66.97369,0,0,1,2.42925,18.45991v79.14989a71.67455,71.67455,0,0,1-7.03879,1.58019q-4.62263.85494-10.6918,1.82c-4.04875.63992-8.52988,1.1698-13.48009,1.57992q-7.40956.59983-15.16768.6001a72.38756,72.38756,0,0,1-18.331-2.18,40.65645,40.65645,0,0,1-14.57-6.92007A32.76246,32.76246,0,0,1,932.185,587.878q-3.50982-7.41-3.50994-18.09015,0-10.20009,3.87-17.47982a33.00509,33.00509,0,0,1,10.93-12.01023,48.49226,48.49226,0,0,1,16.75994-6.92976,96.37283,96.37283,0,0,1,21.10977-2.18c2.27988,0,4.65933.12,7.16981.35981,2.51048.24,4.93973.57023,7.27987.97012,2.35063.41012,4.37108.81,6.06918,1.22013a18.95768,18.95768,0,0,1,3.522,1.07992v-7.76a83.22094,83.22094,0,0,0-.9696-12.75,27.75456,27.75456,0,0,0-4.25051-11.17008,23.66057,23.66057,0,0,0-9.22956-8.01q-5.92768-3.03027-15.66036-3.03014-13.83255,0-20.63076,1.95021-6.79481,1.93475-9.95989,3.13994l-2.18-13.83019a58.69307,58.69307,0,0,1,12.75-3.64989,109.14077,109.14077,0,0,1,20.7492-1.7m1.45964,117.02986q9.24133,0,16.16089-.61005a111.25045,111.25045,0,0,0,11.761-1.57v-44.19a47.82547,47.82547,0,0,0-8.49055-2.54978,75.24366,75.24366,0,0,0-16.02987-1.34015,92.36655,92.36655,0,0,0-12.141.8501A35.46622,35.46622,0,0,0,957.065,549.268a24.26924,24.26924,0,0,0-8.74,7.6499c-2.25,3.24-3.38994,7.54009-3.38994,12.87a27.719,27.719,0,0,0,2.30005,11.90016,19.30449,19.30449,0,0,0,6.55,7.77987,29.48418,29.48418,0,0,0,10.21986,4.24,61.60915,61.60915,0,0,0,13.45885,1.32993"/><path id="Fill-13" class="cls-2" d="M1064.23782,651.367h-15.78088V485.297a139.82031,139.82031,0,0,1,17.97169-4.61006q10.904-2.18985,27.65981-2.19a67.47757,67.47757,0,0,1,25.1284,4.49,54.29386,54.29386,0,0,1,19.43131,12.99,59.28959,59.28959,0,0,1,12.62056,20.63,78.86484,78.86484,0,0,1,4.489,27.45,87.67037,87.67037,0,0,1-3.76047,26.33988,58.82767,58.82767,0,0,1-11.02986,20.63,50.77625,50.77625,0,0,1-17.84854,13.48007,57.13016,57.13016,0,0,1-24.1614,4.87,59.49211,59.49211,0,0,1-21.49893-3.53013c-6.06132-2.34984-10.47957-4.57992-13.22067-6.68V651.367Zm0-67.5a54.9495,54.9495,0,0,0,5.45073,3.6499,53.822,53.822,0,0,0,7.65986,3.63993,61.4294,61.4294,0,0,0,9.47064,2.79009,50.57374,50.57374,0,0,0,10.66823,1.08989q11.67063,0,19.54927-4.01a34.18848,34.18848,0,0,0,12.75155-10.92008,46.47458,46.47458,0,0,0,7.03879-16.26992,86.97119,86.97119,0,0,0,2.19077-19.77987q0-24.78027-12.38992-38-12.39-13.24489-32.78038-13.23008a131.5918,131.5918,0,0,0-18.81811,1.07992,69.81431,69.81431,0,0,0-10.79143,2.31V583.867Z"/><path id="Fill-15" class="cls-2" d="M1262.09933,600.13692a32.24827,32.24827,0,0,1-6.31028,3.0401q-3.64388,1.3349-7.90093,2.42977a76.10715,76.10715,0,0,1-8.72906,1.7002,63.65287,63.65287,0,0,1-8.38049.59985q-27.18154,0-42.0099-16.38994-14.79165-16.38011-14.80085-46.73008a89.84046,89.84046,0,0,1,3.881-27.44,59.97023,59.97023,0,0,1,11.0587-20.64989,47.30218,47.30218,0,0,1,17.48165-12.99,57.61494,57.61494,0,0,1,23.16823-4.47982,90.68735,90.68735,0,0,1,17.49209,1.4599,47.46022,47.46022,0,0,1,12.859,4.37l-2.41877,7.52987a42.26108,42.26108,0,0,0-12.141-4.13,79.85642,79.85642,0,0,0-15.7914-1.4599q-22.57471,0-34.71959,15.04009-12.13446,15.05974-12.12789,42.74974,0,27.18,12.25892,41.27018,12.25626,14.07,35.8097,14.07992a62.7713,62.7713,0,0,0,15.53984-2.19,53.83224,53.83224,0,0,0,13.83907-5.32994l1.94185,7.51992Z"/><path id="Fill-17" class="cls-2" d="M1293.88649,606.4548h-8.25993V488.20506a80.76587,80.76587,0,0,1,18.33856-6.55,86.3607,86.3607,0,0,1,19.30028-2.19q14.06843,0,22.34015,3.15985l-1.70074,7.28014a51.73028,51.73028,0,0,0-9.22956-1.94,93.09827,93.09827,0,0,0-11.89989-.72013,73.81858,73.81858,0,0,0-14.92921,1.57,64.69646,64.69646,0,0,0-13.95966,4.49V606.4548Z"/><path id="Fill-19" class="cls-2" d="M1442.25383,602.324a133.30621,133.30621,0,0,1-19.53884,4.13,152.393,152.393,0,0,1-20.77041,1.4599q-23.7893,0-35.93026-9.59014-12.16587-9.59985-12.141-28.53985,0-18.2099,12.631-27.55005,12.614-9.34473,38.1106-9.34983a98.78108,98.78108,0,0,1,15.5398,1.32992,84.9711,84.9711,0,0,1,13.84958,3.27987V528.014q0-21.82507-8.14993-31.55-8.1289-9.7052-28.02929-9.72013a83.61918,83.61918,0,0,0-15.90935,1.59015,51.92978,51.92978,0,0,0-12.99,4l-1.21071-7.76q12.37419-5.58018,31.55924-5.59014,22.33479,0,32.65978,11.53014,10.30664,11.535,10.31975,32.88993V602.324Zm-8.2495-57.54009a70.09289,70.09289,0,0,0-13.129-3.3999,97.386,97.386,0,0,0-16.01148-1.21016q-42.26813,0-42.24841,29.61005,0,15.555,9.82967,22.94995,9.8388,7.41,30.72061,7.40016a148.01117,148.01117,0,0,0,15.41928-.84014,101.58292,101.58292,0,0,0,15.41928-2.7901V544.78394Z"/><path id="Fill-21" class="cls-2" d="M1475.89631,606.4548h-8.26V465.87487q0-24.76494,10.55031-36.29989,10.58961-11.535,31.94178-11.54a61.67843,61.67843,0,0,1,12.99795,1.34,42.50009,42.50009,0,0,1,9.5912,3.03l-1.94973,7.53a46.8088,46.8088,0,0,0-10.08119-3.03,56.273,56.273,0,0,0-10.55823-1.09q-17.25225,0-25.73111,9.1-8.518,9.105-8.501,31.44v15.54009h52.43181V489.665h-52.43181V606.4548Z"/><path id="Fill-23" class="cls-2" d="M1615.13625,601.35678a60.214,60.214,0,0,1-12.38208,4.61007,55.34125,55.34125,0,0,1-14.3291,1.94q-19.42614,0-28.65043-9.9599-9.22557-9.945-9.22956-34.47013V443.047l8.26-1.94v40.7899h50.739V489.177h-50.739v75.51992a65.19649,65.19649,0,0,0,1.93918,17.3501,25.03088,25.03088,0,0,0,5.83072,10.92976,20.77553,20.77553,0,0,0,9.3396,5.5802,45.26729,45.26729,0,0,0,12.51052,1.57992,49.91412,49.91412,0,0,0,13.95962-1.94,51.0567,51.0567,0,0,0,10.56079-4.13l2.19077,7.28983Z"/></g><g id="illustrate"><path id="Fill-25" class="cls-3" d="M485.47865,457.80293l69.23972,30.76991-69.23972,69.24005Z"/><path id="Fill-27" class="cls-3" d="M353.2906,690l122.16-122.16012-37.27015-37.03983Z"/><path id="Fill-29" class="cls-3" d="M304.86375,390,479.61361,563.68V453.15985Z"/><path id="Fill-31" class="cls-4" d="M590.13606,453.15409H489.50643L618.886,510.65382Z"/></g></svg>