<?xml version="1.0" encoding="utf-8"?>
<svg width="1920px" height="1080px" viewBox="0 0 1920 1080" version="1.1" xmlns:xlink="http://www.w3.org/1999/xlink" xmlns="http://www.w3.org/2000/svg">
  <g id="featuredImagePreview">
    <path d="M0 0L1920 0L1920 1080L0 1080L0 0L0 0Z" id="BG" fill="none" fill-rule="evenodd" stroke="none" />
    <g id="Terminal" transform="translate(760 390)">
      <path d="M15.9091 0L384.091 0C384.352 0 384.612 0.00635321 384.873 0.0190874C385.133 0.0318215 385.392 0.0510476 385.65 0.0768211C385.911 0.102262 386.17 0.134083 386.427 0.172286C386.685 0.21046 386.941 0.25485 387.195 0.305453C387.45 0.356362 387.703 0.413485 387.955 0.476823C388.209 0.540161 388.461 0.609547 388.709 0.685009C388.957 0.760442 389.205 0.842119 389.45 0.930009C389.695 1.01759 389.938 1.11123 390.177 1.21091C390.42 1.31059 390.658 1.41604 390.891 1.52727C391.127 1.63879 391.361 1.75593 391.591 1.87863C391.821 2.00137 392.047 2.12954 392.268 2.26318C392.492 2.39713 392.714 2.53637 392.932 2.68091C393.147 2.82576 393.359 2.9756 393.568 3.13047C393.777 3.28561 393.982 3.44574 394.182 3.6109C394.385 3.77605 394.582 3.94606 394.773 4.1209C394.967 4.29576 395.156 4.47529 395.341 4.65953C395.526 4.84347 395.705 5.03196 395.877 5.225C396.053 5.41804 396.224 5.61515 396.391 5.81637C396.555 6.01759 396.714 6.22273 396.868 6.43183C397.023 6.64093 397.173 6.8538 397.318 7.07045C397.464 7.28682 397.603 7.50666 397.736 7.72999C397.87 7.95332 397.998 8.17985 398.123 8.40953C398.244 8.63894 398.361 8.87135 398.473 9.10681C398.585 9.34226 398.691 9.58016 398.791 9.82045C398.888 10.0611 398.98 10.3039 399.068 10.5491C399.156 10.7943 399.238 11.0414 399.314 11.2904C399.389 11.5396 399.459 11.7905 399.523 12.0432C399.586 12.2956 399.644 12.5495 399.695 12.805C399.744 13.0604 399.788 13.317 399.827 13.5746C399.867 13.8318 399.898 14.09 399.923 14.3491C399.95 14.6085 399.97 14.8682 399.982 15.1282C399.994 15.3882 400 15.6483 400 15.9086L400 284.091C400 284.352 399.994 284.612 399.982 284.873C399.97 285.133 399.95 285.392 399.923 285.65C399.898 285.911 399.867 286.17 399.827 286.427C399.788 286.685 399.744 286.941 399.695 287.195C399.644 287.45 399.586 287.705 399.523 287.959C399.459 288.211 399.389 288.461 399.314 288.709C399.238 288.958 399.156 289.205 399.068 289.45C398.98 289.695 398.888 289.938 398.791 290.177C398.691 290.42 398.585 290.658 398.473 290.891C398.361 291.127 398.244 291.361 398.123 291.591C397.998 291.821 397.87 292.047 397.736 292.268C397.603 292.492 397.464 292.714 397.318 292.932C397.173 293.147 397.023 293.359 396.868 293.568C396.714 293.777 396.555 293.982 396.391 294.182C396.224 294.385 396.053 294.582 395.877 294.773C395.705 294.967 395.526 295.156 395.341 295.341C395.156 295.526 394.967 295.705 394.773 295.877C394.582 296.053 394.385 296.224 394.182 296.391C393.982 296.555 393.777 296.714 393.568 296.868C393.359 297.023 393.147 297.173 392.932 297.318C392.714 297.464 392.492 297.603 392.268 297.736C392.047 297.87 391.821 297.998 391.591 298.123C391.361 298.244 391.127 298.361 390.891 298.473C390.658 298.585 390.42 298.691 390.177 298.791C389.938 298.888 389.695 298.98 389.45 299.068C389.205 299.156 388.957 299.238 388.709 299.314C388.461 299.389 388.209 299.459 387.955 299.523C387.703 299.586 387.45 299.644 387.195 299.695C386.941 299.747 386.685 299.791 386.427 299.827C386.17 299.867 385.911 299.898 385.65 299.923C385.392 299.95 385.133 299.97 384.873 299.982C384.612 299.994 384.352 300 384.091 300L15.9091 300C15.6485 300 15.3879 299.994 15.1273 299.982C14.8667 299.97 14.6076 299.95 14.35 299.923C14.0894 299.898 13.8303 299.867 13.5727 299.827C13.3152 299.791 13.0591 299.747 12.8046 299.695C12.55 299.644 12.2954 299.586 12.0409 299.523C11.7894 299.459 11.5394 299.389 11.2909 299.314C11.0424 299.238 10.7955 299.156 10.55 299.068C10.3046 298.98 10.0621 298.888 9.82272 298.791C9.5803 298.691 9.34093 298.585 9.10456 298.473C8.87124 298.361 8.63942 298.244 8.40909 298.123C8.17877 297.998 7.95305 297.87 7.73182 297.736C7.5076 297.603 7.28638 297.464 7.0682 297.318C6.85303 297.173 6.6409 297.023 6.43183 296.868C6.2227 296.714 6.01818 296.555 5.8182 296.391C5.61518 296.224 5.4182 296.053 5.22727 295.877C5.03335 295.705 4.84392 295.526 4.65909 295.341C4.47427 295.156 4.29543 294.967 4.1227 294.773C3.94698 294.582 3.77575 294.385 3.60906 294.182C3.44543 293.982 3.28635 293.777 3.13182 293.568C2.97729 293.359 2.82726 293.147 2.68183 292.932C2.5364 292.714 2.39696 292.492 2.26363 292.268C2.13029 292.047 2.00151 291.821 1.87727 291.591C1.75604 291.361 1.6394 291.127 1.52727 290.891C1.41513 290.658 1.30909 290.42 1.20911 290.177C1.11212 289.938 1.01968 289.695 0.93184 289.45C0.84395 289.205 0.762107 288.958 0.686368 288.709C0.610629 288.461 0.540938 288.211 0.477295 287.959C0.413652 287.705 0.356057 287.45 0.304565 287.195C0.253018 286.941 0.209073 286.685 0.172729 286.427C0.133334 286.17 0.10154 285.911 0.0772927 285.65C0.0499933 285.392 0.0302956 285.133 0.0181996 284.873C0.00604803 284.612 0 284.352 0 284.091L0 15.9086C0 15.6483 0.00604803 15.3882 0.0181996 15.1282C0.0302956 14.8682 0.0499933 14.6085 0.0772927 14.3491C0.10154 14.09 0.133334 13.8318 0.172729 13.5746C0.209073 13.317 0.253018 13.0604 0.304565 12.805C0.356057 12.5495 0.413652 12.2956 0.477295 12.0432C0.540938 11.7905 0.610629 11.5396 0.686368 11.2904C0.762107 11.0414 0.84395 10.7943 0.93184 10.5491C1.01968 10.3039 1.11212 10.0611 1.20911 9.82045C1.30909 9.58016 1.41513 9.34226 1.52727 9.10681C1.6394 8.87135 1.75604 8.63894 1.87727 8.40953C2.00151 8.17985 2.13029 7.95332 2.26363 7.72999C2.39696 7.50666 2.5364 7.28682 2.68183 7.07045C2.82726 6.8538 2.97729 6.64093 3.13182 6.43183C3.28635 6.22273 3.44543 6.01759 3.60906 5.81637C3.77575 5.61515 3.94698 5.41804 4.1227 5.225C4.29543 5.03196 4.47427 4.84347 4.65909 4.65953C4.84392 4.47529 5.03179 4.29576 5.22272 4.1209C5.41665 3.94606 5.61518 3.77605 5.8182 3.6109C6.01818 3.44574 6.2227 3.28561 6.43183 3.13047C6.6409 2.9756 6.85303 2.82576 7.0682 2.68091C7.28638 2.53637 7.5076 2.39713 7.73182 2.26318C7.95305 2.12954 8.17877 2.00137 8.40909 1.87863C8.63942 1.75593 8.87124 1.63879 9.10456 1.52727C9.34093 1.41604 9.5803 1.31059 9.82272 1.21091C10.0621 1.11123 10.3046 1.01759 10.55 0.930009C10.7955 0.842119 11.0424 0.760442 11.2909 0.685009C11.5394 0.609547 11.7894 0.540161 12.0409 0.476823C12.2954 0.413485 12.55 0.356362 12.8046 0.305453C13.0591 0.25485 13.3152 0.21046 13.5727 0.172286C13.8303 0.134083 14.0894 0.102262 14.35 0.0768211C14.6076 0.0510476 14.8667 0.0318215 15.1273 0.0190874C15.3879 0.00635321 15.6485 0 15.9091 0L15.9091 0Z" id="0" fill="#3F3F3F" fill-rule="evenodd" stroke="none" />
      <path d="M15.9091 0L133.636 0L133.636 50L0 50L0 15.9086C0 15.6483 0.00604803 15.3882 0.0181996 15.1282C0.0302956 14.8682 0.0499933 14.6085 0.0772927 14.3491C0.10154 14.09 0.133334 13.8318 0.172729 13.5746C0.209073 13.317 0.253018 13.0604 0.304565 12.805C0.356057 12.5495 0.413652 12.2956 0.477295 12.0432C0.540938 11.7905 0.610629 11.5396 0.686368 11.2905C0.762107 11.0414 0.84395 10.7943 0.93184 10.5491C1.01968 10.3039 1.11212 10.0611 1.20911 9.82045C1.30909 9.58016 1.41513 9.34226 1.52727 9.10681C1.6394 8.87135 1.75604 8.63894 1.87727 8.40953C2.00151 8.17985 2.13029 7.95332 2.26363 7.72999C2.39696 7.50666 2.5364 7.28682 2.68183 7.07045C2.82726 6.8538 2.97729 6.64093 3.13182 6.43183C3.28635 6.22273 3.44543 6.01759 3.60906 5.81637C3.77575 5.61515 3.94698 5.41804 4.1227 5.225C4.29543 5.03196 4.47427 4.84347 4.65909 4.65953C4.84392 4.47529 5.03179 4.29577 5.22272 4.1209C5.41665 3.94606 5.61518 3.77605 5.8182 3.6109C6.01818 3.44574 6.2227 3.28561 6.43183 3.13047C6.6409 2.9756 6.85303 2.82576 7.0682 2.68091C7.28638 2.53637 7.5076 2.39713 7.73182 2.26318C7.95305 2.12954 8.17877 2.00137 8.40909 1.87863C8.63942 1.75593 8.87124 1.63879 9.10456 1.52727C9.34093 1.41604 9.5803 1.31059 9.82272 1.21091C10.0621 1.11123 10.3046 1.01759 10.55 0.930009C10.7955 0.842119 11.0424 0.760443 11.2909 0.685009C11.5394 0.609547 11.7894 0.540161 12.0409 0.476823C12.2954 0.413485 12.55 0.356362 12.8046 0.305453C13.0591 0.254849 13.3152 0.21046 13.5727 0.172286C13.8303 0.134083 14.0894 0.102262 14.35 0.0768211C14.6076 0.0510476 14.8667 0.0318215 15.1273 0.0190874C15.3879 0.0063532 15.6485 0 15.9091 0L15.9091 0Z" id="1" fill="#CCCCCC" fill-rule="evenodd" stroke="none" />
      <path d="M133.636 0L265.455 0L265.455 50L133.636 50L133.636 0L133.636 0Z" id="2" fill="#999999" fill-rule="evenodd" stroke="none" />
      <path d="M265.455 0L384.091 0C384.352 0 384.612 0.0063532 384.873 0.0190874C385.133 0.0318215 385.392 0.0510476 385.65 0.0768211C385.911 0.102262 386.17 0.134083 386.427 0.172286C386.685 0.21046 386.941 0.254988 387.196 0.305897C387.45 0.356529 387.703 0.413485 387.955 0.476823C388.209 0.540161 388.461 0.609547 388.709 0.685009C388.958 0.760776 389.205 0.842424 389.45 0.930009C389.696 1.01759 389.938 1.11123 390.177 1.21091C390.42 1.31059 390.658 1.41604 390.891 1.52727C391.127 1.63879 391.361 1.75593 391.591 1.87863C391.821 2.00137 392.047 2.12954 392.268 2.26318C392.492 2.39713 392.714 2.53637 392.932 2.68091C393.147 2.82576 393.359 2.97574 393.568 3.13091C393.777 3.28574 393.982 3.44591 394.182 3.61137C394.385 3.77652 394.582 3.94651 394.773 4.12137C394.967 4.2959 395.156 4.47529 395.341 4.65953C395.526 4.84378 395.705 5.03227 395.877 5.225C396.053 5.41804 396.224 5.61515 396.391 5.81637C396.555 6.01759 396.714 6.22273 396.868 6.43183C397.023 6.64093 397.173 6.8538 397.318 7.07045C397.464 7.28682 397.603 7.50666 397.736 7.72999C397.87 7.95332 397.999 8.17985 398.123 8.40953C398.244 8.63894 398.361 8.87135 398.473 9.10681C398.585 9.34226 398.691 9.5803 398.791 9.82092C398.888 10.0612 398.98 10.3039 399.068 10.5491C399.156 10.7943 399.238 11.0415 399.314 11.2909C399.389 11.54 399.459 11.7907 399.523 12.0432C399.586 12.2956 399.644 12.5495 399.696 12.805C399.744 13.0604 399.788 13.317 399.827 13.5746C399.867 13.8321 399.898 14.0904 399.923 14.3495C399.95 14.6086 399.97 14.8682 399.982 15.1282C399.994 15.3882 400 15.6483 400 15.9086L400 50L265.455 50L265.455 0L265.455 0Z" id="3" fill="#666666" fill-rule="evenodd" stroke="none" />
      <path d="M81.0773 94.1555L155 168.082C155.106 168.185 155.209 168.292 155.309 168.405C155.409 168.514 155.506 168.626 155.6 168.741C155.694 168.856 155.785 168.974 155.873 169.095C155.964 169.214 156.05 169.335 156.132 169.459C156.214 169.583 156.294 169.709 156.373 169.836C156.449 169.964 156.521 170.092 156.591 170.223C156.661 170.353 156.727 170.486 156.791 170.623C156.855 170.756 156.915 170.892 156.973 171.032C157.03 171.168 157.083 171.306 157.132 171.445C157.183 171.585 157.23 171.726 157.273 171.868C157.315 172.011 157.355 172.155 157.391 172.3C157.427 172.445 157.461 172.591 157.491 172.736C157.518 172.882 157.542 173.027 157.564 173.173C157.588 173.321 157.606 173.47 157.618 173.618C157.633 173.767 157.646 173.915 157.655 174.064C157.661 174.212 157.664 174.361 157.664 174.509C157.664 174.658 157.661 174.806 157.655 174.955C157.646 175.103 157.633 175.252 157.618 175.4C157.606 175.549 157.588 175.695 157.564 175.841C157.542 175.989 157.518 176.136 157.491 176.282C157.461 176.427 157.427 176.573 157.391 176.718C157.355 176.861 157.315 177.003 157.273 177.145C157.23 177.288 157.183 177.43 157.132 177.573C157.083 177.712 157.03 177.85 156.973 177.986C156.915 178.126 156.855 178.262 156.791 178.395C156.727 178.529 156.661 178.662 156.591 178.795C156.521 178.926 156.449 179.055 156.373 179.182C156.294 179.309 156.214 179.435 156.132 179.559C156.05 179.683 155.964 179.805 155.873 179.923C155.785 180.044 155.694 180.162 155.6 180.277C155.506 180.392 155.409 180.505 155.309 180.614C155.209 180.723 155.106 180.83 155 180.936L139.573 196.364C139.467 196.47 139.359 196.573 139.25 196.673C139.141 196.773 139.029 196.87 138.914 196.964C138.799 197.058 138.68 197.149 138.559 197.236C138.441 197.327 138.32 197.414 138.195 197.495C138.071 197.577 137.945 197.658 137.818 197.736C137.691 197.812 137.562 197.885 137.432 197.955C137.299 198.024 137.165 198.091 137.032 198.155C136.898 198.218 136.762 198.279 136.623 198.336C136.486 198.394 136.349 198.447 136.209 198.495C136.067 198.547 135.924 198.594 135.782 198.636C135.639 198.679 135.497 198.718 135.355 198.755C135.209 198.791 135.064 198.824 134.918 198.855C134.773 198.882 134.626 198.906 134.477 198.927C134.332 198.952 134.185 198.97 134.036 198.982C133.888 198.997 133.739 199.009 133.591 199.018C133.442 199.024 133.294 199.027 133.146 199.027C132.997 199.027 132.849 199.024 132.7 199.018C132.552 199.009 132.403 198.997 132.255 198.982C132.106 198.97 131.958 198.952 131.809 198.927C131.664 198.906 131.518 198.882 131.373 198.855C131.227 198.824 131.082 198.791 130.936 198.755C130.791 198.718 130.647 198.679 130.505 198.636C130.362 198.594 130.221 198.547 130.082 198.495C129.942 198.447 129.805 198.394 129.668 198.336C129.529 198.279 129.392 198.218 129.259 198.155C129.123 198.091 128.989 198.024 128.859 197.955C128.729 197.885 128.6 197.812 128.473 197.736C128.345 197.658 128.22 197.577 128.096 197.495C127.971 197.414 127.85 197.327 127.732 197.236C127.611 197.149 127.492 197.058 127.377 196.964C127.262 196.87 127.15 196.773 127.041 196.673C126.929 196.573 126.821 196.47 126.718 196.364L52.791 122.441C52.6849 122.335 52.5819 122.227 52.4818 122.118C52.3849 122.006 52.2879 121.892 52.1909 121.777C52.097 121.662 52.0061 121.545 51.9182 121.427C51.8304 121.306 51.744 121.185 51.6591 121.064C51.5773 120.939 51.4985 120.814 51.4228 120.686C51.347 120.559 51.2743 120.429 51.2046 120.295C51.1318 120.165 51.0637 120.033 51 119.9C50.9364 119.764 50.8773 119.627 50.8228 119.491C50.7652 119.355 50.7106 119.215 50.6591 119.073C50.6107 118.933 50.5652 118.792 50.5228 118.65C50.4773 118.508 50.4364 118.364 50.4 118.218C50.3637 118.076 50.3318 117.932 50.3046 117.786C50.2742 117.641 50.2485 117.494 50.2273 117.345C50.2061 117.197 50.1879 117.05 50.1728 116.905C50.1576 116.756 50.147 116.608 50.141 116.459C50.1319 116.311 50.1273 116.162 50.1273 116.014C50.1273 115.862 50.1319 115.712 50.141 115.564C50.147 115.415 50.1576 115.268 50.1728 115.123C50.1879 114.974 50.2061 114.826 50.2273 114.677C50.2485 114.532 50.2742 114.385 50.3046 114.236C50.3318 114.091 50.3637 113.947 50.4 113.805C50.4364 113.659 50.4758 113.515 50.5182 113.373C50.5637 113.23 50.6107 113.089 50.6591 112.949C50.7106 112.809 50.7652 112.67 50.8228 112.533C50.8773 112.395 50.9364 112.26 51 112.125C51.0637 111.99 51.1318 111.858 51.2046 111.726C51.2743 111.595 51.347 111.466 51.4228 111.338C51.4985 111.211 51.5773 111.085 51.6591 110.961C51.744 110.837 51.8304 110.716 51.9182 110.596C52.0061 110.477 52.097 110.36 52.1909 110.245C52.2849 110.13 52.3818 110.017 52.4818 109.907C52.5819 109.797 52.6849 109.689 52.791 109.584L68.2182 94.1555C68.3243 94.05 68.4319 93.9474 68.541 93.8477C68.6531 93.7477 68.7667 93.6506 68.8819 93.5564C68.997 93.4618 69.1137 93.3703 69.2319 93.2818C69.3531 93.193 69.4742 93.1073 69.5955 93.0246C69.7197 92.9421 69.8455 92.8626 69.9727 92.7859C70.1 92.7096 70.2304 92.6362 70.3637 92.5659C70.494 92.4959 70.6258 92.4291 70.7591 92.3655C70.8955 92.3018 71.0319 92.2415 71.1682 92.1846C71.3076 92.1276 71.447 92.0741 71.5864 92.0241C71.7258 91.9741 71.8667 91.9274 72.0091 91.8841C72.1516 91.8411 72.2955 91.8014 72.4409 91.765C72.5834 91.7289 72.7273 91.6964 72.8727 91.6673C73.0213 91.6382 73.1683 91.6128 73.3137 91.5909C73.4622 91.5691 73.6106 91.5509 73.7591 91.5364C73.9046 91.5218 74.0515 91.5109 74.2 91.5036C74.3485 91.4964 74.4985 91.4927 74.65 91.4927C74.7985 91.4927 74.947 91.4964 75.0955 91.5036C75.2439 91.5109 75.3924 91.5218 75.5409 91.5364C75.6864 91.5509 75.8334 91.5691 75.9819 91.5909C76.1303 91.6128 76.2773 91.6382 76.4228 91.6673C76.5682 91.6964 76.7121 91.7289 76.8546 91.765C77 91.8014 77.144 91.8411 77.2864 91.8841C77.4288 91.9271 77.5697 91.9738 77.7091 92.0241C77.8485 92.0741 77.9879 92.1276 78.1273 92.1846C78.2636 92.2415 78.4 92.3018 78.5364 92.3655C78.6697 92.4291 78.8015 92.4959 78.9319 92.5659C79.0652 92.6362 79.1955 92.7096 79.3228 92.7859C79.4501 92.8626 79.5758 92.9421 79.7 93.0246C79.8213 93.1073 79.9424 93.193 80.0637 93.2818C80.1819 93.3703 80.2986 93.4618 80.4137 93.5564C80.5288 93.6506 80.6425 93.7477 80.7546 93.8477C80.8637 93.9474 80.9713 94.05 81.0773 94.1555L81.0773 94.1555Z" id="4" fill="#D8D8D8" fill-rule="evenodd" stroke="none" />
      <path d="M126.65 152.727L52.7273 226.65C52.6213 226.756 52.5182 226.864 52.4182 226.973C52.3182 227.085 52.2213 227.198 52.1273 227.314C52.0334 227.429 51.9409 227.545 51.85 227.664C51.7622 227.785 51.6773 227.906 51.5955 228.027C51.5136 228.152 51.4333 228.277 51.3546 228.405C51.2788 228.532 51.2061 228.662 51.1364 228.795C51.0667 228.926 51 229.058 50.9364 229.191C50.8728 229.327 50.8121 229.464 50.7546 229.6C50.697 229.736 50.6439 229.876 50.5955 230.018C50.5439 230.158 50.497 230.298 50.4546 230.441C50.4121 230.583 50.3727 230.727 50.3364 230.873C50.3 231.015 50.2667 231.159 50.2364 231.305C50.2091 231.45 50.1849 231.597 50.1636 231.745C50.1394 231.894 50.1213 232.041 50.1091 232.186C50.094 232.335 50.0818 232.483 50.0728 232.632C50.0667 232.78 50.0637 232.929 50.0637 233.077C50.0637 233.229 50.0667 233.379 50.0728 233.527C50.0818 233.676 50.094 233.823 50.1091 233.968C50.1213 234.117 50.1394 234.265 50.1636 234.414C50.1849 234.559 50.2091 234.706 50.2364 234.855C50.2667 235 50.3 235.144 50.3364 235.286C50.3727 235.432 50.4121 235.576 50.4546 235.718C50.497 235.861 50.5439 236.002 50.5955 236.141C50.6439 236.28 50.697 236.42 50.7546 236.559C50.8121 236.695 50.8728 236.832 50.9364 236.968C51 237.102 51.0667 237.233 51.1364 237.364C51.2061 237.497 51.2788 237.627 51.3546 237.755C51.4333 237.882 51.5136 238.008 51.5955 238.132C51.6773 238.253 51.7637 238.374 51.8545 238.495C51.9424 238.614 52.0334 238.73 52.1273 238.845C52.2213 238.961 52.3182 239.074 52.4182 239.186C52.5182 239.295 52.6213 239.403 52.7273 239.509L68.1545 254.936C68.2606 255.042 68.3682 255.145 68.4773 255.245C68.5864 255.345 68.6985 255.442 68.8137 255.536C68.9288 255.63 69.047 255.721 69.1682 255.809C69.2864 255.897 69.4076 255.983 69.5318 256.068C69.6561 256.15 69.7818 256.229 69.9091 256.305C70.0364 256.38 70.1651 256.453 70.2955 256.523C70.4288 256.595 70.5621 256.664 70.6955 256.727C70.8288 256.791 70.9651 256.85 71.1046 256.905C71.2409 256.962 71.3788 257.017 71.5182 257.068C71.6606 257.117 71.8031 257.162 71.9455 257.205C72.0879 257.25 72.2303 257.291 72.3727 257.327C72.5182 257.364 72.6637 257.395 72.8091 257.423C72.9546 257.453 73.1015 257.479 73.25 257.5C73.3955 257.521 73.5424 257.539 73.6909 257.555C73.8394 257.57 73.9879 257.58 74.1364 257.586C74.2849 257.595 74.4333 257.6 74.5818 257.6C74.7303 257.6 74.8788 257.595 75.0273 257.586C75.1758 257.58 75.3243 257.57 75.4728 257.555C75.6212 257.539 75.7697 257.521 75.9182 257.5C76.0636 257.479 76.2091 257.453 76.3546 257.423C76.5 257.395 76.6455 257.364 76.7909 257.327C76.9364 257.291 77.0803 257.25 77.2227 257.205C77.3652 257.162 77.5061 257.117 77.6454 257.068C77.7849 257.017 77.9228 256.962 78.0591 256.905C78.1985 256.85 78.3349 256.791 78.4682 256.727C78.6045 256.664 78.7379 256.595 78.8682 256.523C78.9985 256.453 79.1273 256.38 79.2546 256.305C79.3818 256.229 79.5076 256.15 79.6318 256.068C79.756 255.983 79.8773 255.897 79.9955 255.809C80.1167 255.721 80.2349 255.63 80.35 255.536C80.4652 255.442 80.5773 255.345 80.6864 255.245C80.7985 255.145 80.9061 255.042 81.0091 254.936L154.936 181.009C155.042 180.906 155.145 180.799 155.245 180.686C155.342 180.577 155.439 180.465 155.536 180.35C155.63 180.235 155.721 180.117 155.809 179.995C155.897 179.877 155.983 179.756 156.068 179.632C156.15 179.508 156.229 179.382 156.305 179.255C156.38 179.127 156.453 178.998 156.523 178.868C156.595 178.738 156.664 178.605 156.727 178.468C156.791 178.335 156.85 178.198 156.905 178.059C156.962 177.923 157.017 177.785 157.068 177.645C157.117 177.506 157.162 177.365 157.205 177.223C157.25 177.08 157.291 176.936 157.327 176.791C157.364 176.645 157.395 176.5 157.423 176.355C157.453 176.209 157.479 176.064 157.5 175.918C157.521 175.77 157.539 175.621 157.555 175.473C157.57 175.324 157.58 175.176 157.586 175.027C157.595 174.879 157.6 174.73 157.6 174.582C157.6 174.433 157.595 174.285 157.586 174.136C157.58 173.988 157.57 173.839 157.555 173.691C157.539 173.542 157.521 173.395 157.5 173.25C157.479 173.102 157.453 172.955 157.423 172.809C157.395 172.664 157.364 172.518 157.327 172.373C157.291 172.23 157.25 172.088 157.205 171.945C157.162 171.803 157.117 171.661 157.068 171.518C157.017 171.379 156.962 171.241 156.905 171.105C156.85 170.965 156.791 170.829 156.727 170.695C156.664 170.562 156.595 170.429 156.523 170.295C156.453 170.165 156.38 170.036 156.305 169.909C156.229 169.782 156.15 169.656 156.068 169.532C155.983 169.408 155.897 169.286 155.809 169.168C155.721 169.047 155.63 168.929 155.536 168.814C155.442 168.699 155.345 168.586 155.245 168.477C155.145 168.368 155.042 168.261 154.936 168.155L139.509 152.727C139.403 152.621 139.295 152.518 139.186 152.418C139.074 152.318 138.961 152.221 138.845 152.127C138.73 152.033 138.614 151.942 138.495 151.855C138.374 151.764 138.253 151.677 138.132 151.595C138.008 151.514 137.882 151.433 137.755 151.355C137.624 151.279 137.494 151.206 137.364 151.136C137.233 151.067 137.102 151 136.968 150.936C136.832 150.873 136.695 150.812 136.559 150.755C136.42 150.697 136.28 150.644 136.141 150.596C136.002 150.544 135.861 150.497 135.718 150.455C135.576 150.412 135.432 150.373 135.286 150.336C135.144 150.3 135 150.267 134.855 150.236C134.706 150.209 134.559 150.185 134.414 150.164C134.265 150.139 134.117 150.121 133.968 150.109C133.823 150.094 133.676 150.082 133.527 150.073C133.379 150.067 133.229 150.064 133.077 150.064C132.929 150.064 132.78 150.067 132.632 150.073C132.483 150.082 132.335 150.094 132.186 150.109C132.041 150.121 131.894 150.139 131.745 150.164C131.597 150.185 131.45 150.209 131.305 150.236C131.159 150.267 131.015 150.3 130.873 150.336C130.727 150.373 130.583 150.412 130.441 150.455C130.298 150.497 130.158 150.544 130.018 150.596C129.876 150.644 129.736 150.697 129.6 150.755C129.464 150.812 129.327 150.873 129.191 150.936C129.058 151 128.926 151.067 128.795 151.136C128.662 151.206 128.532 151.28 128.405 151.359C128.277 151.435 128.152 151.514 128.027 151.595C127.906 151.677 127.785 151.764 127.664 151.855C127.545 151.942 127.429 152.033 127.314 152.127C127.199 152.221 127.085 152.318 126.973 152.418C126.864 152.518 126.756 152.621 126.65 152.727L126.65 152.727Z" id="5" fill="#A1A1A1" fill-rule="evenodd" stroke="none" />
      <path d="M200.455 216.818L332.727 216.818C332.876 216.818 333.024 216.821 333.173 216.827C333.321 216.836 333.47 216.848 333.618 216.864C333.767 216.876 333.915 216.894 334.064 216.918C334.209 216.939 334.354 216.964 334.5 216.991C334.645 217.021 334.791 217.055 334.936 217.091C335.082 217.127 335.226 217.167 335.368 217.209C335.511 217.252 335.652 217.298 335.791 217.35C335.93 217.398 336.068 217.451 336.204 217.509C336.344 217.567 336.48 217.627 336.614 217.691C336.75 217.755 336.883 217.821 337.014 217.891C337.144 217.961 337.273 218.035 337.4 218.114C337.527 218.189 337.653 218.268 337.777 218.35C337.901 218.432 338.023 218.518 338.141 218.609C338.262 218.697 338.38 218.788 338.495 218.882C338.611 218.976 338.723 219.073 338.832 219.173C338.944 219.273 339.052 219.376 339.154 219.482C339.261 219.585 339.364 219.692 339.464 219.805C339.564 219.914 339.661 220.026 339.755 220.141C339.849 220.256 339.939 220.374 340.027 220.495C340.118 220.614 340.205 220.735 340.286 220.859C340.368 220.983 340.447 221.109 340.523 221.236C340.601 221.364 340.676 221.492 340.745 221.623C340.815 221.753 340.882 221.886 340.945 222.023C341.009 222.156 341.07 222.292 341.127 222.432C341.185 222.568 341.238 222.706 341.286 222.845C341.338 222.985 341.385 223.126 341.427 223.268C341.47 223.411 341.509 223.555 341.545 223.7C341.582 223.845 341.615 223.991 341.646 224.136C341.673 224.282 341.697 224.427 341.718 224.573C341.742 224.721 341.761 224.87 341.773 225.018C341.788 225.167 341.8 225.315 341.809 225.464C341.815 225.612 341.818 225.761 341.818 225.909L341.818 250C341.818 250.148 341.815 250.297 341.809 250.445C341.8 250.594 341.788 250.742 341.773 250.891C341.761 251.039 341.742 251.188 341.718 251.336C341.697 251.482 341.673 251.627 341.646 251.773C341.615 251.918 341.582 252.064 341.545 252.209C341.509 252.355 341.47 252.498 341.427 252.641C341.385 252.783 341.338 252.924 341.286 253.064C341.238 253.203 341.185 253.341 341.127 253.477C341.07 253.617 341.009 253.753 340.945 253.886C340.882 254.023 340.815 254.156 340.745 254.286C340.676 254.417 340.601 254.545 340.523 254.673C340.447 254.8 340.368 254.926 340.286 255.05C340.205 255.174 340.118 255.295 340.027 255.414C339.939 255.535 339.849 255.653 339.755 255.768C339.661 255.883 339.564 255.995 339.464 256.105C339.364 256.217 339.261 256.324 339.154 256.427C339.052 256.533 338.944 256.636 338.832 256.736C338.723 256.836 338.611 256.933 338.495 257.027C338.38 257.121 338.262 257.212 338.141 257.3C338.023 257.391 337.901 257.477 337.777 257.559C337.653 257.641 337.527 257.72 337.4 257.795C337.273 257.874 337.144 257.948 337.014 258.018C336.883 258.088 336.75 258.155 336.614 258.218C336.48 258.282 336.344 258.342 336.204 258.4C336.068 258.458 335.93 258.511 335.791 258.559C335.652 258.611 335.511 258.658 335.368 258.7C335.226 258.742 335.082 258.782 334.936 258.818C334.791 258.855 334.645 258.888 334.5 258.918C334.354 258.945 334.209 258.97 334.064 258.991C333.915 259.015 333.767 259.033 333.618 259.045C333.47 259.061 333.321 259.073 333.173 259.082C333.024 259.088 332.876 259.091 332.727 259.091L200.455 259.091C200.306 259.091 200.158 259.088 200.009 259.082C199.861 259.073 199.712 259.061 199.564 259.045C199.415 259.033 199.267 259.015 199.118 258.991C198.973 258.97 198.827 258.945 198.682 258.918C198.536 258.888 198.391 258.855 198.245 258.818C198.1 258.782 197.956 258.742 197.814 258.7C197.671 258.658 197.53 258.611 197.391 258.559C197.252 258.511 197.114 258.458 196.977 258.4C196.838 258.342 196.702 258.282 196.568 258.218C196.432 258.155 196.299 258.088 196.168 258.018C196.038 257.948 195.909 257.874 195.782 257.795C195.655 257.72 195.529 257.641 195.405 257.559C195.28 257.477 195.159 257.391 195.041 257.3C194.92 257.212 194.802 257.121 194.686 257.027C194.571 256.933 194.459 256.836 194.35 256.736C194.238 256.636 194.13 256.533 194.027 256.427C193.921 256.324 193.818 256.217 193.718 256.105C193.618 255.995 193.521 255.883 193.427 255.768C193.333 255.653 193.242 255.535 193.155 255.414C193.064 255.295 192.977 255.174 192.895 255.05C192.814 254.926 192.735 254.8 192.659 254.673C192.58 254.545 192.506 254.417 192.436 254.286C192.367 254.156 192.3 254.023 192.236 253.886C192.173 253.753 192.112 253.617 192.055 253.477C191.997 253.341 191.944 253.203 191.895 253.064C191.844 252.924 191.797 252.783 191.755 252.641C191.712 252.498 191.673 252.355 191.636 252.209C191.6 252.064 191.567 251.918 191.536 251.773C191.509 251.627 191.485 251.482 191.464 251.336C191.439 251.188 191.421 251.039 191.409 250.891C191.394 250.742 191.382 250.594 191.373 250.445C191.367 250.297 191.364 250.148 191.364 250L191.364 225.909C191.364 225.761 191.367 225.612 191.373 225.464C191.382 225.315 191.394 225.167 191.409 225.018C191.421 224.87 191.439 224.721 191.464 224.573C191.485 224.427 191.509 224.282 191.536 224.136C191.567 223.991 191.6 223.845 191.636 223.7C191.673 223.555 191.712 223.411 191.755 223.268C191.797 223.126 191.844 222.985 191.895 222.845C191.944 222.706 191.997 222.568 192.055 222.432C192.112 222.292 192.173 222.156 192.236 222.023C192.3 221.886 192.367 221.753 192.436 221.623C192.506 221.492 192.58 221.364 192.659 221.236C192.735 221.109 192.814 220.983 192.895 220.859C192.977 220.735 193.064 220.614 193.155 220.495C193.242 220.374 193.333 220.256 193.427 220.141C193.521 220.026 193.618 219.914 193.718 219.805C193.818 219.692 193.921 219.585 194.027 219.482C194.13 219.376 194.238 219.273 194.35 219.173C194.459 219.073 194.571 218.976 194.686 218.882C194.802 218.788 194.92 218.697 195.041 218.609C195.159 218.518 195.28 218.432 195.405 218.35C195.529 218.268 195.655 218.189 195.782 218.114C195.909 218.035 196.038 217.961 196.168 217.891C196.299 217.821 196.432 217.755 196.568 217.691C196.702 217.627 196.838 217.567 196.977 217.509C197.114 217.451 197.252 217.398 197.391 217.35C197.53 217.298 197.671 217.252 197.814 217.209C197.956 217.167 198.1 217.127 198.245 217.091C198.391 217.055 198.536 217.021 198.682 216.991C198.827 216.964 198.973 216.939 199.118 216.918C199.267 216.894 199.415 216.876 199.564 216.864C199.712 216.848 199.861 216.836 200.009 216.827C200.158 216.821 200.306 216.818 200.455 216.818L200.455 216.818Z" id="6" fill="#D3D3D3" fill-rule="evenodd" stroke="none" />
    </g>
  </g>
</svg>