<?xml version="1.0" encoding="utf-8"?>
<svg width="544px" height="544px" viewBox="0 0 544 544" version="1.1" xmlns:xlink="http://www.w3.org/1999/xlink" xmlns="http://www.w3.org/2000/svg">
  <defs>
    <path d="M10.0208 23.1711C34.7966 -12.0052 106.765 -4.34187 122.863 27.4556C138.962 59.2531 80.7024 103.671 45.3401 103.671C9.97844 103.671 -14.755 58.348 10.0208 23.1711L10.0208 23.1711L10.0208 23.1711L10.0208 23.1711L10.0208 23.1711Z" id="path_1" />
    <path d="M115.595 23.1711C90.8196 -12.0052 18.8504 -4.34187 2.75271 27.4556C-13.3458 59.2531 44.9135 103.671 80.2758 103.671C115.638 103.671 140.371 58.348 115.595 23.1711L115.595 23.1711L115.595 23.1711L115.595 23.1711L115.595 23.1711Z" id="path_2" />
    <clipPath id="mask_1">
      <use xlink:href="#path_1" />
    </clipPath>
    <clipPath id="mask_2">
      <use xlink:href="#path_2" />
    </clipPath>
  </defs>
  <g id="notion-avatar" transform="translate(12 12)">
    <path d="M0 0L520 0L520 520L0 520L0 0Z" id="Rectangle" fill="none" fill-rule="evenodd" stroke="none" />
    <g id="notion-avatar-face" transform="translate(37.703705 113.18544)">
      <g id="Face-8">
        <path d="M227.016 0C327.319 0 408.63 81.3107 408.63 181.613C408.63 281.915 372.722 393.495 272.42 393.495C197.172 393.495 107.058 330.696 66.735 256.972C64.6983 257.18 62.6304 257.286 60.5377 257.286C27.1036 257.286 0 230.182 0 196.748C0 166.581 22.0651 141.568 50.9365 136.967C70.8287 58.2519 142.12 0 227.016 0L227.016 0L227.016 0L227.016 0L227.016 0ZM48.3234 185.809L54.5908 209.199" id="Path" fill="#FFFFFF" fill-rule="evenodd" stroke="#000000" stroke-width="24" stroke-linecap="round" stroke-linejoin="round" />
      </g>
    </g>
    <g id="notion-avatar-nose" transform="translate(335.85223 277.2299)">
      <g id="Nose-3">
        <path d="M8.91504 0C22.0811 31.7017 27.9567 53.6298 26.5419 65.7844C25.1272 77.939 16.2799 81.5421 0 76.5931" id="Line" fill="none" fill-rule="evenodd" stroke="#000000" stroke-width="16" stroke-linecap="round" stroke-linejoin="round" />
      </g>
    </g>
    <g id="notion-avatar-mouth" transform="translate(277.5846 400.7398)">
      <g id="Mouth-1">
        <path d="M0 0C19.773 11.0986 40.9612 16.6479 63.5647 16.6479C86.1683 16.6479 101.303 11.0986 108.968 0" id="Path#1" fill="none" fill-rule="evenodd" stroke="#000000" stroke-width="16" stroke-linecap="round" stroke-linejoin="round" />
      </g>
    </g>
    <g id="notion-avatar-glasses" transform="translate(84.48956 198.69482)">
      <g id="Glasses-13">
        <g id="Group#2">
          <path d="M227.879 10.9946L295.538 10.9946" id="Path#5" fill="none" fill-rule="evenodd" stroke="#000000" stroke-width="8" stroke-linecap="round" stroke-linejoin="round" />
          <path d="M226.391 37.6585C226.391 37.6585 243.564 24.972 260.443 24.972C277.323 24.972 294.051 37.6585 294.051 37.6585" id="Path_2#1" fill="none" fill-rule="evenodd" stroke="#000000" stroke-width="8" stroke-linecap="round" stroke-linejoin="round" />
          <path d="M163.949 37.5101L0 66.4185" id="Path_3" fill="none" fill-rule="evenodd" stroke="#000000" stroke-width="16" stroke-linecap="round" stroke-linejoin="round" />
          <g id="Rectangle" transform="translate(123.47622 0)">
            <path d="M10.0208 23.1711C34.7966 -12.0052 106.765 -4.34187 122.863 27.4556C138.962 59.2531 80.7024 103.671 45.3401 103.671C9.97844 103.671 -14.755 58.348 10.0208 23.1711L10.0208 23.1711L10.0208 23.1711L10.0208 23.1711L10.0208 23.1711Z" id="Mask" fill="#0C0C0C" fill-rule="evenodd" stroke="none" />
            <g id="Mask-group">
              <path d="M10.0208 23.1711C34.7966 -12.0052 106.765 -4.34187 122.863 27.4556C138.962 59.2531 80.7024 103.671 45.3401 103.671C9.97844 103.671 -14.755 58.348 10.0208 23.1711L10.0208 23.1711L10.0208 23.1711L10.0208 23.1711L10.0208 23.1711Z" id="Mask_2" fill="none" fill-rule="evenodd" stroke="none" />
              <g id="Mask-group#1">
                <path d="M10.0208 23.1711C34.7966 -12.0052 106.765 -4.34187 122.863 27.4556C138.962 59.2531 80.7024 103.671 45.3401 103.671C9.97844 103.671 -14.755 58.348 10.0208 23.1711L10.0208 23.1711L10.0208 23.1711L10.0208 23.1711L10.0208 23.1711Z" id="path_2#1" fill="none" stroke="none" />
                <g id="Mask-group#2">
                  <path d="M10.0208 23.1711C34.7966 -12.0052 106.765 -4.34187 122.863 27.4556C138.962 59.2531 80.7024 103.671 45.3401 103.671C9.97844 103.671 -14.755 58.348 10.0208 23.1711L10.0208 23.1711L10.0208 23.1711L10.0208 23.1711L10.0208 23.1711Z" id="path_1#1" fill="none" stroke="none" />
                  <g id="Mask-group">
                    <path d="M10.0208 23.1711C34.7966 -12.0052 106.765 -4.34187 122.863 27.4556C138.962 59.2531 80.7024 103.671 45.3401 103.671C9.97844 103.671 -14.755 58.348 10.0208 23.1711L10.0208 23.1711L10.0208 23.1711L10.0208 23.1711L10.0208 23.1711Z" id="path_1" fill="none" stroke="none" />
                    <g clip-path="url(#mask_1)">
                      <g id="Group" transform="translate(51.74141 -21.894073)">
                        <g id="Group">
                          <g id="Group#1">
                            <g id="Group#3">
                              <path d="M18.3495 0L97.8051 137.621L79.4559 148.215L0 10.5941L18.3495 0L18.3495 0L18.3495 0L18.3495 0Z" id="Rectangle_2" fill="#FFFFFF" fill-rule="evenodd" stroke="none" />
                            </g>
                          </g>
                        </g>
                      </g>
                    </g>
                  </g>
                </g>
              </g>
            </g>
          </g>
          <g id="Rectangle_3" transform="translate(271.03763 0)">
            <path d="M115.595 23.1711C90.8196 -12.0052 18.8504 -4.34187 2.75271 27.4556C-13.3458 59.2531 44.9135 103.671 80.2758 103.671C115.638 103.671 140.371 58.348 115.595 23.1711L115.595 23.1711L115.595 23.1711L115.595 23.1711L115.595 23.1711Z" id="Mask_3" fill="#0C0C0C" fill-rule="evenodd" stroke="none" />
            <g id="Mask-group#3">
              <path d="M115.595 23.1711C90.8196 -12.0052 18.8504 -4.34187 2.75271 27.4556C-13.3458 59.2531 44.9135 103.671 80.2758 103.671C115.638 103.671 140.371 58.348 115.595 23.1711L115.595 23.1711L115.595 23.1711L115.595 23.1711L115.595 23.1711Z" id="Mask_4" fill="none" fill-rule="evenodd" stroke="none" />
              <g id="Mask-group#4">
                <path d="M115.595 23.1711C90.8196 -12.0052 18.8504 -4.34187 2.75271 27.4556C-13.3458 59.2531 44.9135 103.671 80.2758 103.671C115.638 103.671 140.371 58.348 115.595 23.1711L115.595 23.1711L115.595 23.1711L115.595 23.1711L115.595 23.1711Z" id="path_3" fill="none" stroke="none" />
                <g id="Mask-group#5">
                  <path d="M115.595 23.1711C90.8196 -12.0052 18.8504 -4.34187 2.75271 27.4556C-13.3458 59.2531 44.9135 103.671 80.2758 103.671C115.638 103.671 140.371 58.348 115.595 23.1711L115.595 23.1711L115.595 23.1711L115.595 23.1711L115.595 23.1711Z" id="path_2#2" fill="none" stroke="none" />
                  <g id="Mask-group">
                    <path d="M115.595 23.1711C90.8196 -12.0052 18.8504 -4.34187 2.75271 27.4556C-13.3458 59.2531 44.9135 103.671 80.2758 103.671C115.638 103.671 140.371 58.348 115.595 23.1711L115.595 23.1711L115.595 23.1711L115.595 23.1711L115.595 23.1711Z" id="path_2" fill="none" stroke="none" />
                    <g clip-path="url(#mask_2)">
                      <g id="Group" transform="translate(47.957207 -21.894028)">
                        <g id="Group#4">
                          <g id="Group#5">
                            <g id="Group#6">
                              <path d="M18.3495 0L97.8051 137.621L79.4558 148.215L0 10.5941L18.3495 0L18.3495 0L18.3495 0L18.3495 0Z" id="Rectangle_4" fill="#FFFFFF" fill-rule="evenodd" stroke="none" />
                            </g>
                          </g>
                        </g>
                      </g>
                    </g>
                  </g>
                </g>
              </g>
            </g>
          </g>
          <path d="M133.497 23.1711C158.273 -12.0052 230.242 -4.34187 246.339 27.4556C262.438 59.2531 204.179 103.671 168.816 103.671C133.455 103.671 108.721 58.348 133.497 23.1711L133.497 23.1711L133.497 23.1711L133.497 23.1711L133.497 23.1711Z" id="Path_4" fill="none" fill-rule="evenodd" stroke="#000000" stroke-width="8" stroke-linecap="round" stroke-linejoin="round" />
          <path d="M386.633 23.1711C361.857 -12.0052 289.888 -4.34187 273.791 27.4556C257.692 59.2531 315.951 103.671 351.313 103.671C386.675 103.671 411.409 58.348 386.633 23.1711L386.633 23.1711L386.633 23.1711L386.633 23.1711L386.633 23.1711Z" id="Path_5" fill="none" fill-rule="evenodd" stroke="#000000" stroke-width="8" stroke-linecap="round" stroke-linejoin="round" />
        </g>
      </g>
    </g>
    <g id="notion-avatar-hair" transform="translate(63.003006 6.680725)">
      <g id="Hairstyle-5">
        <path d="M270.579 19.4816C330.216 45.3245 356.599 80.113 359.872 106.505C362.111 124.557 357.823 143.727 347.008 164.015C303.118 158.971 268.561 161.745 243.337 172.34C193.257 193.373 141.799 192.113 88.9661 168.556C95.1691 194.268 101.074 214.716 98.0462 242.714C96.0284 261.38 89.9749 289.884 79.8851 328.224C61.4757 286.752 49.8726 262.788 45.0758 256.336C40.2791 249.883 30.6939 245.342 16.3204 242.714C4.69317 199.523 -4.86783 179.15 2.6994 145.854C10.2666 112.558 38.1991 75.7001 70.0477 65.6417C73.6153 64.515 68.5705 57.4522 54.9132 44.4535C92.9507 33.1313 120.275 26.6037 136.886 24.8707C142.735 24.2605 140.634 16.6626 130.586 2.07706C184.156 -3.54843 230.82 2.2531 270.579 19.4816L270.579 19.4816L270.579 19.4816L270.579 19.4816L270.579 19.4816Z" id="Path#6" fill="#000000" fill-rule="evenodd" stroke="#000000" stroke-width="12" stroke-linecap="round" stroke-linejoin="round" />
      </g>
    </g>
  </g>
</svg>