<?xml version="1.0" standalone="no"?>
<!DOCTYPE svg PUBLIC "-//W3C//DTD SVG 20010904//EN"
 "http://www.w3.org/TR/2001/REC-SVG-20010904/DTD/svg10.dtd">
<svg version="1.0" xmlns="http://www.w3.org/2000/svg"
 width="700.000000pt" height="700.000000pt" viewBox="0 0 700.000000 700.000000"
 preserveAspectRatio="xMidYMid meet">
<metadata>
Created by potrace 1.14, written by Peter Selinger 2001-2017
</metadata>
<g transform="translate(0.000000,700.000000) scale(0.100000,-0.100000)"
fill="#000000" stroke="none">
<path d="M2900 6830 c-242 -15 -281 -21 -307 -46 -31 -31 -29 -70 8 -124 33
-50 82 -141 77 -144 -2 -2 -70 -15 -153 -31 -280 -52 -875 -212 -908 -244 -10
-10 -19 -32 -19 -49 -1 -26 14 -46 85 -123 48 -50 87 -94 87 -98 0 -3 -38 -25
-83 -49 -361 -188 -671 -612 -769 -1052 -19 -88 -23 -134 -23 -280 0 -219 13
-292 126 -689 27 -96 48 -175 47 -176 -2 -2 -32 -17 -68 -35 -250 -124 -438
-369 -494 -642 -20 -97 -21 -284 -1 -375 62 -293 241 -523 509 -653 114 -55
182 -75 310 -89 49 -6 90 -12 91 -13 0 -2 25 -41 54 -88 134 -213 322 -440
542 -655 508 -495 1136 -845 1722 -960 562 -111 1053 -1 1437 321 515 431 833
1259 876 2281 l7 162 60 43 c173 124 280 342 281 568 0 281 -146 521 -394 645
-67 33 -169 69 -230 80 -64 12 -70 16 -116 88 -26 40 -71 104 -100 143 l-54
72 29 59 c161 325 194 662 90 922 -136 341 -484 661 -984 906 -403 197 -779
294 -1265 325 -178 11 -290 11 -470 0z m2256 -2292 c64 -67 174 -201 174 -212
0 -3 -11 -6 -24 -6 -40 0 -197 -49 -275 -85 l-73 -35 -367 0 -366 0 -90 39
c-100 44 -221 78 -305 87 -92 9 -89 14 29 50 63 19 173 58 245 86 258 100 462
135 792 137 l201 1 59 -62z m-2801 -124 c225 -77 443 -120 701 -136 l182 -12
-51 -23 c-153 -71 -282 -206 -350 -368 l-25 -60 -239 -42 c-131 -23 -243 -42
-249 -42 -8 -1 -13 54 -17 172 -5 177 -40 400 -83 541 -5 15 -3 18 12 11 11
-4 64 -23 119 -41z m1420 -184 c180 -21 148 11 359 -355 l185 -319 -17 -30
c-20 -35 -168 -193 -174 -186 -3 4 -455 787 -515 893 -6 10 51 9 162 -3z
m1959 -13 l60 -12 233 -405 234 -404 -16 -42 c-21 -55 -84 -151 -122 -187
l-30 -28 -311 541 c-172 297 -312 545 -312 551 0 14 171 5 264 -14z m-950
-164 c-21 -27 -39 -49 -40 -51 0 -1 -35 3 -77 10 -60 9 -94 9 -154 0 l-76 -12
-29 32 c-63 73 -75 68 182 68 l231 0 -37 -47z m-117 -143 c21 0 22 -2 16 -83
-7 -100 6 -164 52 -262 90 -190 328 -411 578 -536 94 -48 262 -105 332 -114
28 -3 61 -8 74 -11 l24 -5 -7 -122 c-60 -1055 -410 -1833 -967 -2145 -262
-147 -616 -187 -990 -112 -658 133 -1388 612 -1875 1230 -57 73 -141 196 -269
397 -50 78 -66 85 -201 88 -202 5 -324 55 -455 185 -127 127 -182 263 -181
445 0 122 31 229 93 325 47 73 134 161 197 197 l44 26 25 -32 c41 -52 61 -55
205 -30 70 12 134 19 142 16 20 -8 151 -270 301 -602 64 -143 126 -270 138
-283 27 -29 71 -29 101 1 19 19 37 79 89 293 55 224 126 555 151 704 l6 35
227 39 c126 22 235 41 244 43 13 4 17 -9 22 -70 32 -379 362 -664 713 -617
323 43 714 291 895 568 83 127 121 264 101 364 -5 29 -8 55 -6 57 9 9 90 19
124 15 19 -2 45 -4 57 -4z"/>
<path d="M4540 3365 c-35 -18 -53 -56 -47 -97 2 -18 37 -117 76 -219 92 -240
142 -434 144 -550 2 -73 -1 -90 -17 -108 -23 -25 -84 -28 -165 -6 -74 19 -119
4 -144 -48 -50 -101 47 -169 243 -171 98 0 152 19 209 75 64 63 76 106 75 259
-1 122 -4 148 -36 270 -62 232 -183 551 -224 588 -29 25 -76 28 -114 7z"/>
<path d="M1182 3130 c-43 -27 -72 -76 -72 -125 0 -37 67 -307 91 -368 6 -15
26 -40 44 -56 89 -78 227 -26 249 93 9 45 -87 392 -117 424 -51 55 -135 69
-195 32z"/>
<path d="M3658 1761 c-27 -24 -33 -36 -33 -69 0 -57 30 -85 150 -143 453 -218
1027 -238 1308 -45 79 54 147 136 147 177 0 63 -43 108 -103 109 -34 0 -46 -7
-99 -61 -64 -65 -121 -97 -228 -126 -93 -26 -417 -25 -545 0 -131 27 -265 72
-394 133 -63 30 -127 54 -142 54 -17 0 -41 -11 -61 -29z"/>
</g>
</svg>
