<?xml version="1.0" encoding="utf-8"?>
<svg width="1920px" height="1080px" viewBox="0 0 1920 1080" version="1.1" xmlns:xlink="http://www.w3.org/1999/xlink" xmlns="http://www.w3.org/2000/svg">
  <g id="featuredImagePreview">
    <path d="M0 0L1920 0L1920 1080L0 1080L0 0Z" id="Rectangle" fill="none" fill-rule="evenodd" stroke="none" />
    <path d="M983.684 549.831C978.684 549.831 984.684 557.407 991.196 560.438C992.946 556.65 994.571 552.104 996.071 547.938C992.51 550.569 987.881 551.278 983.696 549.831M1011.66 541.938C1015.47 538.286 1018.29 533.726 1019.85 528.688C1018.8 532.063 1016.36 534.937 1014.1 537.813C1001.04 543.687 1012.88 534.438 1014.1 530.812C1000.17 543.438 1012.19 538.312 1011.66 541.938M1029.71 520.806C1032.71 505.125 1021.31 509.91 1017.71 516C1021.91 516.87 1025.51 526.873 1029.71 520.785M965.024 393.875C969.315 398.042 974.679 401.167 974.035 406.375C978.97 401.167 980.044 395.958 964.809 393.875M980.809 395.375L968.309 407.875L979.976 403.709L979.976 395.376M1052.97 519.675C1053.22 527.675 1050.47 531.55 1048.22 538.425L1043.85 540.687C1040.35 547.437 1044.22 545.062 1041.72 550.437C1036.22 555.312 1024.97 565.687 1021.47 566.699C1018.96 566.699 1023.22 563.574 1023.85 562.449C1016.46 567.449 1017.83 569.949 1006.71 573.074L1006.33 572.324C978.57 585.324 940.046 559.574 940.671 524.299C940.296 526.424 939.796 525.924 939.171 526.799C937.618 508.434 947.571 491.02 964.183 483.037C979.5 475.327 997.966 477.702 1010.83 489.037C1002.72 478.52 990.097 472.487 976.821 472.787C962.071 472.912 948.309 482.286 943.684 492.412C936.184 497.161 935.309 510.787 932.059 513.174C927.546 545.686 940.309 559.699 961.809 576.199C965.184 578.574 962.809 578.824 963.309 580.574C956.004 577.108 949.493 572.172 944.184 566.075C946.896 570.371 950.271 574.21 954.184 577.45C947.309 575.2 938.309 561.2 935.684 560.575C947.309 581.325 982.934 597.088 1001.45 589.325C991.603 590.022 981.718 588.834 972.321 585.825C968.196 583.825 962.696 579.45 963.571 578.7C988.218 589.07 1016.57 585.035 1037.35 568.2C1042.85 563.825 1048.97 556.45 1050.72 556.325C1048.22 560.325 1051.22 558.325 1049.22 561.825C1054.72 552.825 1046.72 558.075 1054.97 546.325L1057.97 550.45C1056.85 542.95 1067.22 533.938 1066.22 522.175C1068.6 518.425 1068.72 525.925 1066.22 534.3C1069.85 525.05 1067.22 523.675 1068.1 516.05C1069.24 518.604 1070.2 521.236 1070.97 523.925C1068.72 515.175 1073.47 508.925 1074.47 503.925C1073.35 503.3 1070.97 507.675 1070.47 497.3C1070.47 492.675 1071.72 494.8 1072.22 493.8C1071.22 493.175 1068.97 489.8 1067.47 483.038C1068.47 481.413 1070.22 487.163 1071.72 487.288C1070.72 482.038 1069.22 477.913 1069.22 473.788C1064.97 465.288 1067.72 475.038 1064.22 470.038C1059.97 456.4 1067.97 466.913 1068.47 460.788C1075.22 470.413 1078.97 485.288 1080.73 491.538C1079.4 484.026 1077.35 476.659 1074.61 469.537C1076.61 470.413 1071.36 454.025 1077.23 464.913C1069.45 441.488 1053.1 421.872 1031.46 410C1033.71 412.125 1036.71 414.875 1035.58 415.25C1026.21 409.625 1027.83 409.25 1026.46 406.875C1018.83 403.75 1018.33 407.125 1013.21 406.875C998.709 399.125 995.959 400 982.684 395L983.309 397.875C973.684 394.75 972.059 399.125 961.684 397.875C961.059 397.375 965.059 396.125 968.309 395.625C959.047 396.875 959.547 393.875 950.422 396C952.625 394.521 954.922 393.184 957.297 392C949.797 392.5 939.297 396.375 942.547 392.875C930.184 398.5 908.272 406.25 896.022 417.75L895.659 415C890.034 421.75 871.159 435.138 869.659 443.888L868.022 444.263C865.147 449.263 863.272 454.888 860.897 460.025C857.147 466.525 855.272 462.525 855.897 463.525C848.397 478.775 844.647 491.663 841.397 502.3C843.647 505.675 841.397 522.925 842.272 536.8C838.522 605.088 890.272 671.5 946.809 686.875C955.184 689.75 967.434 689.75 977.934 690C965.559 686.5 963.935 688.125 951.935 683.875C943.185 679.875 941.31 675.125 935.185 669.75L937.685 674.125C925.547 669.875 930.56 668.875 920.672 665.75L923.297 662.375C919.422 662 912.922 655.75 911.172 652.25L906.922 652.375C901.797 646.113 899.047 641.488 899.297 637.863L897.909 640.363C896.285 637.738 878.91 616.6 887.91 621.475C886.285 619.975 884.035 618.975 881.66 614.6L883.41 612.475C879.035 606.975 875.41 599.725 875.66 597.475C878.16 600.475 879.66 601.225 881.285 601.6C870.285 574.45 869.66 600.1 861.272 574.075L863.147 573.825C861.94 571.766 860.855 569.637 859.897 567.45L860.647 559.95C852.772 550.7 858.397 521.175 859.522 504.925C860.397 498.175 866.147 491.175 870.522 480.163L867.897 479.663C872.897 470.788 897.159 443.763 908.409 445.15C913.784 438.275 907.284 445.15 906.159 443.4C918.159 431.013 921.909 434.65 929.922 432.4C938.672 427.388 922.422 434.4 926.547 430.513C941.547 426.763 937.172 421.763 956.809 419.888C958.809 421.138 951.934 421.638 950.309 423.138C962.81 417.013 989.697 418.513 1007.33 426.513C1027.71 436.138 1050.6 464.15 1051.47 490.663L1052.47 490.913C1051.97 501.538 1054.1 513.675 1050.35 524.8L1052.85 519.55M929.59 555.45L928.809 558.95C932.871 563.325 936.153 568.075 941.309 571.575C937.559 565.7 934.746 563.325 929.59 555.325M942.32 555.961C938.938 554 935.895 551.506 933.309 548.575C935.634 553.12 940.867 557.098 945.809 561.075L942.32 555.961M1077 525.3L1075.84 527.175C1073.99 537.07 1070.13 546.481 1064.5 554.825C1070.86 546.08 1075.08 535.969 1076.83 525.3M965.809 402.5C969.184 392.083 974.059 397.292 977.684 390C973.059 393.125 968.434 395.208 963.934 400.417L965.809 402.5M850.905 454.275C853.309 466.019 836.135 470.758 854.683 462.929C864.987 449.331 850.905 459.22 851.248 454.275M840.775 489.537C847.589 483.734 849.293 480.311 852.132 477.037C832.257 483.585 842.479 484.924 840.775 489.389" id="Shape" fill="#A81D33" fill-rule="evenodd" stroke="none" />
  </g>
</svg>