<?xml version="1.0" encoding="utf-8"?>
<svg width="1920px" height="1080px" viewBox="0 0 1920 1080" version="1.1" xmlns:xlink="http://www.w3.org/1999/xlink" xmlns="http://www.w3.org/2000/svg">
  <g id="featuredImagePreview">
    <path d="M0 0L1920 0L1920 1080L0 1080L0 0L0 0Z" id="Rectangle" fill="none" fill-rule="evenodd" stroke="none" />
    <path d="M1085.31 673.91C1089.39 659.902 1087.82 647.08 1081.02 637.552C1074.81 628.807 1064.31 623.759 1051.68 623.165L812.335 620.061C810.849 620.083 809.456 619.339 808.65 618.09C807.868 616.929 807.68 615.365 808.07 613.798C808.838 611.476 811.174 609.696 813.697 609.48L1055.16 606.376C1083.77 605.025 1114.87 581.864 1125.75 553.483L1139.54 517.514C1140.14 515.964 1140.35 514.397 1139.95 512.871C1124.4 442.49 1061.59 390 986.545 390C917.336 390 858.613 434.714 837.628 496.731C824.01 486.62 806.707 481.184 788.041 482.939C754.801 486.228 728.158 512.874 724.852 546.114C724.07 554.683 724.661 563.052 726.607 570.825C672.349 572.367 629 616.714 629 671.348C629 676.18 629.393 681.064 629.973 685.923C630.363 688.217 632.306 690 634.641 690L1076.38 690C1078.89 690 1081.24 688.217 1081.99 685.707L1085.31 673.91L1085.31 673.91ZM1161.51 520.135C1159.38 520.135 1157.06 520.135 1154.93 520.444C1153.36 520.444 1152.01 521.591 1151.42 523.142L1142.08 555.603C1138 569.611 1139.54 582.434 1146.34 591.989C1152.58 600.735 1163.08 605.754 1175.71 606.349L1226.67 609.48C1228.21 609.48 1229.59 610.207 1230.35 611.423C1231.13 612.612 1231.32 614.392 1230.94 615.741C1230.16 618.063 1227.81 619.845 1225.3 620.033L1172.2 623.137C1143.43 624.486 1112.55 647.646 1101.64 676.042L1097.76 685.951C1096.97 687.922 1098.35 689.865 1100.48 689.865L1282.85 689.865C1284.98 689.865 1286.92 688.513 1287.52 686.382C1290.62 675.099 1292.37 663.247 1292.37 650.994C1292.37 579.059 1233.64 520.337 1161.51 520.337" id="Cloudflare" fill="#F38020" fill-rule="evenodd" stroke="none" />
  </g>
</svg>